<svg width="2211" height="430" viewBox="0 0 2211 430" fill="none" xmlns="http://www.w3.org/2000/svg">
<g clip-path="url(#clip0_14_344)">
<path fill-rule="evenodd" clip-rule="evenodd" d="M100.25 265.177L0.000732422 212.142L0.000671387 324.106L100.25 377.141V265.177ZM114.447 272.688V384.651L200.5 430.177L200.5 318.213L114.447 272.688Z" fill="white"/>
<path d="M100.25 159.106L0 106.071V324.106L100.25 377.141V159.106Z" fill="#B10000"/>
<path fill-rule="evenodd" clip-rule="evenodd" d="M15.0317 98.1188L114.446 150.712V166.617L200.5 212.142L200.5 0L15.0317 98.1188Z" fill="white"/>
<path d="M300.75 159.106L401 106.071V324.106L300.75 377.141V159.106Z" fill="#E1E1E1"/>
<path fill-rule="evenodd" clip-rule="evenodd" d="M285.805 167.013L200.5 212.142L200.5 0L385.176 97.6999L285.805 150.271V167.013ZM300.749 159.107L400.999 106.072V106.071L300.749 159.107V159.107Z" fill="#E1E1E1"/>
<path d="M200.5 318.213L200.5 430.177L401 324.106L401 212.142L200.5 318.213Z" fill="#E1E1E1"/>
<path d="M2189.79 164.021L2189.89 163.877L2189.97 163.726L2200.37 145.485L2202.4 141.918L2199.3 139.23C2195.78 136.179 2191.8 133.498 2187.39 131.174C2183.07 128.782 2178.44 126.775 2173.49 125.142C2168.49 123.417 2163.22 122.152 2157.68 121.337C2152.21 120.444 2146.59 120 2140.82 120C2130.45 120 2121.06 121.499 2112.73 124.607C2104.55 127.58 2097.51 131.637 2091.69 136.842C2085.92 142 2081.49 147.942 2078.46 154.664C2075.46 161.323 2073.93 168.218 2073.93 175.308C2073.93 183.666 2075.15 191.038 2077.8 197.252L2077.8 197.264L2077.81 197.276C2080.34 203.144 2083.71 208.195 2087.93 212.34L2087.97 212.378L2088.01 212.415C2092.2 216.344 2096.93 219.544 2102.18 222.01L2102.21 222.024L2102.24 222.038C2107.22 224.294 2112.33 226.228 2117.57 227.839L2117.6 227.85L2117.63 227.86C2122.71 229.345 2127.67 230.714 2132.51 231.967C2137.09 233.154 2141.08 234.506 2144.51 236.006L2144.53 236.014L2144.55 236.022C2147.84 237.433 2150.27 239.121 2152.02 240.993C2153.32 242.394 2154.14 244.318 2154.14 247.227C2154.14 252.961 2152.43 256.24 2149.84 258.206C2146.8 260.433 2142.1 261.862 2135.13 261.862C2129.94 261.862 2125.66 261.179 2122.2 259.945C2118.29 258.552 2114.89 257.037 2111.95 255.414C2108.84 253.648 2106.02 252.036 2103.49 250.578C2100.38 248.735 2097.04 247.688 2093.54 247.688C2090.79 247.688 2088.19 248.367 2085.79 249.707C2083.66 250.87 2081.83 252.404 2080.38 254.33L2080.3 254.433L2080.23 254.54L2067.85 272.897L2065.48 276.426L2068.58 279.338C2072.45 282.974 2076.95 286.223 2082.04 289.105C2087.07 291.956 2092.43 294.43 2098.12 296.532L2098.15 296.543L2098.18 296.553C2103.87 298.578 2109.73 300.156 2115.76 301.288L2115.77 301.29C2121.91 302.426 2127.95 303 2133.89 303C2144.58 303 2154.29 301.503 2162.93 298.408L2162.94 298.404L2162.95 298.4C2171.57 295.265 2178.93 290.957 2184.94 285.406L2184.94 285.405C2190.98 279.82 2195.6 273.273 2198.77 265.792C2201.94 258.324 2203.5 250.337 2203.5 241.882C2203.5 234.313 2202.26 227.553 2199.57 221.775C2197.01 216.196 2193.59 211.391 2189.28 207.429C2185.16 203.569 2180.43 200.417 2175.11 197.962C2170.15 195.635 2165.06 193.627 2159.84 191.939C2154.75 190.214 2149.72 188.681 2144.77 187.341C2140.17 185.999 2136.1 184.561 2132.54 183.036C2129.24 181.592 2126.78 179.963 2125 178.23C2123.72 176.984 2123.05 175.478 2123.05 173.333C2123.05 169.335 2124.38 166.597 2126.9 164.542L2126.91 164.537C2129.51 162.406 2134.02 160.905 2141.32 160.905C2145.44 160.905 2148.94 161.433 2151.89 162.4L2151.94 162.415L2151.98 162.43C2155.31 163.446 2158.16 164.581 2160.57 165.817L2160.6 165.83L2160.63 165.844C2163.4 167.219 2165.82 168.469 2167.9 169.597L2167.99 169.648L2168.09 169.696C2170.8 171.015 2173.62 171.827 2176.47 171.827C2179.29 171.827 2182.1 171.221 2184.49 169.563C2186.57 168.17 2188.31 166.242 2189.79 164.021Z" fill="white" stroke="white" stroke-width="10"/>
<path d="M2006.05 259.992L2006.03 259.999L2006.01 260.006C2003.32 261.028 1999.49 261.655 1994.3 261.655H1969.84V229.479H1994.05C1999.08 229.479 2002.98 229.926 2005.87 230.703C2008.87 231.507 2010.92 232.559 2012.28 233.679L2012.32 233.71L2012.35 233.739C2013.78 234.871 2014.67 236.166 2015.17 237.677L2015.2 237.748L2015.22 237.817C2015.9 239.659 2016.28 241.852 2016.28 244.463C2016.28 246.711 2015.97 248.927 2015.35 251.123C2014.84 252.936 2013.91 254.594 2012.45 256.13C2011.14 257.519 2009.1 258.861 2006.05 259.992ZM1986.62 193.222H1969.84V161.395H1989.35C1993.82 161.395 1997.51 161.728 2000.47 162.338L2000.48 162.34L2000.49 162.342C2003.44 162.936 2005.56 163.866 2007.07 164.964C2008.49 166.001 2009.57 167.388 2010.32 169.272L2010.33 169.296L2010.34 169.319C2011.09 171.159 2011.58 173.795 2011.58 177.424C2011.58 180.994 2010.96 183.552 2010.03 185.351L2010 185.405L2009.98 185.459C2009.1 187.27 2007.81 188.668 2006 189.726L2005.97 189.744L2005.94 189.762C2004.05 190.91 2001.54 191.819 1998.3 192.36C1994.91 192.926 1991.03 193.222 1986.62 193.222ZM2057.72 218.378C2053.61 214.015 2048.25 210.544 2041.81 207.861C2042.72 207.335 2043.6 206.792 2044.46 206.231C2048.68 203.448 2052.25 200.335 2055.1 196.86L2055.12 196.836L2055.14 196.812C2057.96 193.288 2060.07 189.478 2061.43 185.388L2061.43 185.372L2061.44 185.357C2062.76 181.289 2063.41 177.089 2063.41 172.777C2063.41 165.194 2062.02 158.175 2059.14 151.805C2056.27 145.255 2051.65 139.777 2045.48 135.364C2039.3 130.948 2031.53 127.674 2022.36 125.4C2013.1 123.105 2002.07 122 1989.35 122H1923H1918V127V296.282V301.282H1923H1995.04C2006.23 301.282 2016.35 299.96 2025.33 297.232L2025.35 297.226L2025.37 297.22C2034.26 294.438 2041.91 290.574 2048.18 285.542L2048.18 285.538C2054.49 280.46 2059.36 274.46 2062.67 267.538C2065.98 260.634 2067.62 253.191 2067.62 245.277C2067.62 234.612 2064.43 225.493 2057.72 218.378Z" fill="white" stroke="white" stroke-width="10"/>
<path d="M1819.84 187.256C1820.93 184.66 1822.07 181.692 1823.25 178.363C1824.42 181.583 1825.54 184.473 1826.61 187.026L1840.86 226.567H1805.7L1819.84 187.256ZM1914.45 301.282H1921.92L1919.07 294.376L1849.26 125.094L1847.98 122H1844.64H1801.81H1798.46L1797.19 125.094L1727.38 294.376L1724.53 301.282H1732H1764.68C1768.98 301.282 1772.97 300.21 1776.31 297.75L1776.32 297.743L1776.33 297.737C1779.25 295.562 1781.57 292.921 1782.91 289.731L1782.95 289.615L1783 289.497L1792.45 263.289H1854L1863.45 289.497L1863.53 289.709L1863.62 289.913C1865.14 293.164 1867.38 295.877 1870.28 297.997L1870.33 298.031L1870.38 298.064C1873.68 300.363 1877.71 301.282 1882.02 301.282H1914.45Z" fill="white" stroke="white" stroke-width="10"/>
<path d="M1727.68 264.912V259.912H1722.68H1660.84V127V122H1655.84H1614H1609V127V296.282V301.282H1614H1722.68H1727.68V296.282V264.912Z" fill="white" stroke="white" stroke-width="10"/>
<path d="M1386.92 187.115C1388 184.519 1389.14 181.552 1390.33 178.222C1391.5 181.442 1392.61 184.332 1393.69 186.885L1407.94 226.426H1372.78L1386.92 187.115ZM1481.52 301.141H1489L1486.15 294.235L1416.34 124.953L1415.06 121.859H1411.71H1368.89H1365.54L1364.26 124.953L1294.45 294.235L1291.6 301.141H1299.08H1331.75C1336.06 301.141 1340.05 300.069 1343.38 297.609L1343.39 297.602L1343.4 297.596C1346.32 295.421 1348.65 292.78 1349.98 289.59L1350.03 289.474L1350.07 289.356L1359.53 263.148H1421.07L1430.53 289.356L1430.6 289.568L1430.7 289.772C1432.21 293.023 1434.45 295.736 1437.36 297.856L1437.4 297.89L1437.45 297.923C1440.76 300.222 1444.78 301.141 1449.09 301.141H1481.52Z" fill="white" stroke="white" stroke-width="10"/>
<path d="M1316.13 162.997H1321.13V157.997V126.859V121.859H1316.13H1172.8H1167.8V126.859V157.997V162.997H1172.8H1218.55V296.141V301.141H1223.55H1265.38H1270.38V296.141V162.997H1316.13Z" fill="white" stroke="white" stroke-width="10"/>
<path d="M1143.95 276.765L1143.96 276.756L1143.97 276.748C1152.63 268.452 1159.33 258.711 1164.05 247.564C1168.87 236.368 1171.26 224.309 1171.26 211.442C1171.26 198.648 1168.87 186.628 1164.05 175.435C1159.33 164.284 1152.63 154.575 1143.95 146.351C1135.27 138.114 1124.83 131.702 1112.73 127.075C1100.61 122.331 1087.24 120 1072.68 120C1058.13 120 1044.72 122.292 1032.53 126.952C1020.42 131.577 1009.95 137.988 1001.18 146.218L1001.17 146.227L1001.17 146.235C992.495 154.456 985.753 164.161 980.951 175.305L980.945 175.32L980.938 175.335C976.204 186.528 973.859 198.582 973.859 211.442C973.859 224.302 976.204 236.356 980.938 247.548L980.945 247.564L980.951 247.579C985.751 258.719 992.487 268.455 1001.15 276.748L1001.17 276.765L1001.18 276.782C1009.95 285.012 1020.42 291.423 1032.53 296.048C1044.72 300.708 1058.13 303 1072.68 303C1087.24 303 1100.61 300.709 1112.72 296.046C1124.83 291.419 1135.26 285.005 1143.95 276.765ZM1115.24 190.524L1115.24 190.532L1115.24 190.54C1117.34 196.587 1118.43 203.533 1118.43 211.442C1118.43 219.429 1117.34 226.457 1115.24 232.586C1113.14 238.647 1110.14 243.67 1106.3 247.751L1106.28 247.768L1106.27 247.785C1102.52 251.839 1097.89 254.986 1092.28 257.207C1086.69 259.345 1080.18 260.468 1072.68 260.468C1065.1 260.468 1058.51 259.345 1052.82 257.202C1047.22 254.982 1042.54 251.833 1038.71 247.768C1034.95 243.687 1031.99 238.658 1029.88 232.585C1027.78 226.456 1026.69 219.429 1026.69 211.442C1026.69 203.533 1027.78 196.587 1029.88 190.54L1029.88 190.532L1029.88 190.524C1031.99 184.368 1034.96 179.306 1038.71 175.232C1042.55 171.161 1047.24 168.008 1052.85 165.788C1058.53 163.575 1065.11 162.416 1072.68 162.416C1080.17 162.416 1086.67 163.575 1092.26 165.784C1097.88 168.005 1102.52 171.155 1106.27 175.215L1106.28 175.232L1106.3 175.249C1110.13 179.322 1113.13 184.378 1115.24 190.524Z" fill="white" stroke="white" stroke-width="10"/>
<path d="M942.331 276.765L942.34 276.756L942.349 276.748C951.012 268.452 957.71 258.711 962.427 247.564C967.249 236.368 969.637 224.309 969.637 211.442C969.637 198.648 967.247 186.628 962.427 175.435C957.708 164.284 951.004 154.575 942.331 146.351C933.643 138.114 923.211 131.702 911.112 127.075C898.991 122.331 885.619 120 871.06 120C856.503 120 843.098 122.292 830.904 126.952C818.801 131.577 808.328 137.988 799.56 146.218L799.551 146.227L799.542 146.235C790.871 154.456 784.13 164.161 779.328 175.305L779.322 175.32L779.315 175.335C774.581 186.528 772.236 198.582 772.236 211.442C772.236 224.302 774.581 236.356 779.315 247.548L779.322 247.564L779.328 247.579C784.128 258.719 790.864 268.455 799.524 276.748L799.542 276.765L799.56 276.782C808.328 285.012 818.801 291.423 830.904 296.048C843.098 300.708 856.503 303 871.06 303C885.615 303 898.982 300.709 911.099 296.046C923.203 291.419 933.641 285.005 942.331 276.765ZM913.614 190.524L913.617 190.532L913.62 190.54C915.717 196.587 916.81 203.533 916.81 211.442C916.81 219.428 915.717 226.454 913.618 232.582C911.514 238.645 908.517 243.669 904.677 247.751L904.66 247.768L904.644 247.785C900.902 251.839 896.27 254.986 890.661 257.207C885.064 259.345 878.557 260.468 871.06 260.468C863.481 260.468 856.886 259.345 851.201 257.202C845.598 254.982 840.919 251.833 837.089 247.768C833.326 243.687 830.364 238.657 828.256 232.584C826.156 226.456 825.064 219.429 825.064 211.442C825.064 203.533 826.156 196.587 828.253 190.54L828.256 190.532L828.259 190.524C830.37 184.368 833.333 179.306 837.089 175.232C840.925 171.161 845.612 168.008 851.227 165.788C856.903 163.575 863.487 162.416 871.06 162.416C878.551 162.416 885.048 163.575 890.636 165.784C896.256 168.005 900.896 171.155 904.644 175.215L904.66 175.232L904.677 175.249C908.509 179.322 911.507 184.379 913.614 190.524Z" fill="white" stroke="white" stroke-width="10"/>
<path d="M757.739 126.859V121.859H752.739H720.805C718.922 121.859 717.218 121.899 715.702 121.983L715.693 121.983L715.684 121.984C713.959 122.085 712.28 122.395 710.69 122.969C708.92 123.608 707.354 124.61 705.995 125.886C704.663 127.136 703.545 128.734 702.58 130.455L702.562 130.488L702.544 130.52L656.294 215.955C654.524 218.965 652.843 222.12 651.249 225.42C649.776 222.293 648.221 219.269 646.586 216.35L600.187 130.523L600.168 130.489L600.149 130.455C599.186 128.737 598.033 127.143 596.616 125.886C595.317 124.591 593.784 123.599 592.04 122.969C590.421 122.385 588.691 122.082 586.913 121.983C585.469 121.899 583.801 121.859 581.925 121.859H549.99H544.99V126.859V296.141V301.141H549.99H586.876H591.876V296.141V204.285L629.527 272.867C631.42 276.322 634.039 279.086 637.4 280.978L637.43 280.996L637.461 281.012C640.827 282.847 644.553 283.713 648.518 283.713H654.212C658.161 283.713 661.864 282.853 665.175 280.996C668.611 279.116 671.291 276.355 673.201 272.87C673.201 272.869 673.202 272.868 673.203 272.867L710.853 204.467V296.141V301.141H715.853H752.739H757.739V296.141V126.859ZM590.408 191.221L586.629 191.458L590.408 191.221Z" fill="white" stroke="white" stroke-width="10"/>
</g>
<defs>
<clipPath id="clip0_14_344">
<rect width="2211" height="430" fill="white" transform="matrix(-1 0 0 1 2211 0)"/>
</clipPath>
</defs>
</svg>
