<svg width="2211" height="430" viewBox="0 0 2211 430" fill="none" xmlns="http://www.w3.org/2000/svg">
<g clip-path="url(#clip0_14_287)">
<path fill-rule="evenodd" clip-rule="evenodd" d="M100.25 265.177L0.000732422 212.142L0.000671387 324.106L100.25 377.141V265.177ZM114.447 272.688V384.651L200.5 430.177L200.5 318.213L114.447 272.688Z" fill="#404040"/>
<path d="M100.25 159.106L0 106.071V324.106L100.25 377.141V159.106Z" fill="#B10000"/>
<path fill-rule="evenodd" clip-rule="evenodd" d="M15.0317 98.1188L114.446 150.712V166.617L200.5 212.142L200.5 0L15.0317 98.1188Z" fill="#404040"/>
<path d="M300.75 159.106L401 106.071V324.106L300.75 377.141V159.106Z" fill="black"/>
<path fill-rule="evenodd" clip-rule="evenodd" d="M285.805 167.013L200.5 212.142L200.5 0L385.176 97.6999L285.805 150.271V167.013ZM300.749 159.107L400.999 106.072V106.071L300.749 159.107V159.107Z" fill="black"/>
<path d="M200.5 318.213L200.5 430.177L401 324.106L401 212.142L200.5 318.213Z" fill="black"/>
<path d="M586.545 162.221C591.512 162.221 596.338 163.072 601.021 164.775C605.847 166.479 610.46 168.962 614.859 172.227C615.569 172.936 616.35 173.646 617.201 174.355C617.911 173.646 618.691 172.936 619.543 172.227C623.943 168.962 628.484 166.479 633.168 164.775C637.993 163.072 642.819 162.221 647.645 162.221C652.612 162.221 657.438 163.072 662.121 164.775C666.947 166.479 671.488 169.033 675.746 172.439C680.146 175.704 683.978 180.104 687.242 185.639C690.648 191.174 692.352 197.773 692.352 205.438V282.291C691.5 290.807 686.816 295.419 678.301 296.129C674.327 296.129 670.85 294.852 667.869 292.297C665.031 289.6 663.611 286.265 663.611 282.291V207.141C663.611 203.734 662.973 200.896 661.695 198.625C660.418 196.212 658.999 194.367 657.438 193.09C655.876 191.671 654.244 190.677 652.541 190.109C650.838 189.4 649.135 189.045 647.432 189.045C645.729 189.045 644.025 189.4 642.322 190.109C640.761 190.677 639.2 191.671 637.639 193.09C636.077 194.367 634.658 196.212 633.381 198.625C632.104 200.896 631.394 203.734 631.252 207.141V282.291C630.4 290.807 625.717 295.419 617.201 296.129C613.227 296.129 609.75 294.852 606.77 292.297C603.931 289.6 602.512 286.265 602.512 282.291V207.141C602.512 203.734 601.873 200.896 600.596 198.625C599.318 196.212 597.899 194.367 596.338 193.09C594.777 191.671 593.145 190.677 591.441 190.109C589.738 189.4 588.035 189.045 586.332 189.045C584.629 189.045 582.926 189.4 581.223 190.109C579.661 190.677 578.1 191.671 576.539 193.09C574.978 194.367 573.559 196.212 572.281 198.625C571.004 200.896 570.294 203.734 570.152 207.141V282.291C569.443 290.807 564.83 295.419 556.314 296.129C552.34 296.129 548.863 294.852 545.883 292.297C543.044 289.6 541.625 286.265 541.625 282.291V205.438C541.909 197.773 543.683 191.174 546.947 185.639C550.212 180.104 554.044 175.704 558.443 172.439C562.843 169.033 567.385 166.479 572.068 164.775C576.894 163.072 581.719 162.221 586.545 162.221ZM833.498 167.969C840.736 168.111 847.194 170.382 852.871 174.781C858.548 179.181 863.09 184.432 866.496 190.535C870.044 196.638 872.67 203.096 874.373 209.908C876.076 216.721 876.928 223.675 876.928 230.771C876.928 240.139 875.438 249.364 872.457 258.447C869.618 267.389 864.864 275.337 858.193 282.291C851.665 289.245 843.433 293.007 833.498 293.574H759.199C749.264 293.148 740.962 289.458 734.291 282.504C727.62 275.549 722.866 267.531 720.027 258.447C717.331 249.364 715.982 240.139 715.982 230.771C715.982 221.404 717.402 212.25 720.24 203.309C723.079 194.225 727.762 186.206 734.291 179.252C740.962 172.156 749.264 168.395 759.199 167.969H763.244H829.453H833.498ZM826.26 265.047C831.653 264.763 836.124 262.776 839.672 259.086C843.362 255.254 845.988 250.854 847.549 245.887C849.11 240.919 849.891 235.881 849.891 230.771C849.891 225.662 849.039 220.695 847.336 215.869C845.775 210.902 843.22 206.502 839.672 202.67C836.124 198.838 831.653 196.78 826.26 196.496H765.799C760.406 196.78 755.935 198.838 752.387 202.67C748.839 206.502 746.213 210.902 744.51 215.869C742.949 220.695 742.168 225.662 742.168 230.771C742.168 235.881 742.949 240.919 744.51 245.887C746.071 250.854 748.626 255.254 752.174 259.086C755.864 262.776 760.406 264.763 765.799 265.047H826.26ZM1014.46 167.969C1021.69 168.111 1028.15 170.382 1033.83 174.781C1039.51 179.181 1044.05 184.432 1047.45 190.535C1051 196.638 1053.63 203.096 1055.33 209.908C1057.03 216.721 1057.88 223.675 1057.88 230.771C1057.88 240.139 1056.39 249.364 1053.41 258.447C1050.58 267.389 1045.82 275.337 1039.15 282.291C1032.62 289.245 1024.39 293.007 1014.46 293.574H940.156C930.221 293.148 921.919 289.458 915.248 282.504C908.577 275.549 903.823 267.531 900.984 258.447C898.288 249.364 896.939 240.139 896.939 230.771C896.939 221.404 898.359 212.25 901.197 203.309C904.036 194.225 908.719 186.206 915.248 179.252C921.919 172.156 930.221 168.395 940.156 167.969H944.201H1010.41H1014.46ZM1007.22 265.047C1012.61 264.763 1017.08 262.776 1020.63 259.086C1024.32 255.254 1026.94 250.854 1028.51 245.887C1030.07 240.919 1030.85 235.881 1030.85 230.771C1030.85 225.662 1030 220.695 1028.29 215.869C1026.73 210.902 1024.18 206.502 1020.63 202.67C1017.08 198.838 1012.61 196.78 1007.22 196.496H946.756C941.363 196.78 936.892 198.838 933.344 202.67C929.796 206.502 927.17 210.902 925.467 215.869C923.906 220.695 923.125 225.662 923.125 230.771C923.125 235.881 923.906 240.919 925.467 245.887C927.028 250.854 929.583 255.254 933.131 259.086C936.821 262.776 941.363 264.763 946.756 265.047H1007.22ZM1077.04 182.232C1077.04 178.258 1078.39 174.923 1081.09 172.227C1083.93 169.388 1087.33 167.969 1091.31 167.969H1215.21C1219.18 167.969 1222.59 169.317 1225.43 172.014C1228.13 174.852 1229.47 178.258 1229.47 182.232C1229.47 186.206 1228.06 189.613 1225.22 192.451C1222.52 195.148 1219.18 196.496 1215.21 196.496H1167.74V282.717C1166.88 291.232 1162.2 295.845 1153.69 296.555C1149.71 296.555 1146.23 295.277 1143.25 292.723C1140.42 290.026 1139 286.691 1139 282.717V196.496H1091.31C1087.33 196.496 1084 195.077 1081.3 192.238C1078.46 189.542 1077.04 186.206 1077.04 182.232ZM1299.73 260.576C1299.73 256.602 1301.08 253.267 1303.77 250.57C1306.61 247.732 1310.02 246.312 1313.99 246.312H1346.56L1341.03 230.559C1338.76 224.74 1336.49 219.275 1334.22 214.166C1332.09 208.915 1329.6 204.16 1326.77 199.902C1324.21 195.645 1321.3 193.374 1318.04 193.09C1314.63 193.374 1311.58 195.645 1308.88 199.902C1306.19 204.16 1303.7 208.915 1301.43 214.166C1299.3 219.275 1297.1 224.74 1294.83 230.559L1274.61 285.91C1273.19 288.891 1271.34 291.374 1269.07 293.361C1266.94 295.206 1263.68 296.129 1259.28 296.129C1255.16 296.129 1251.76 294.71 1249.06 291.871C1246.51 289.033 1245.37 285.626 1245.65 281.652C1245.8 279.807 1246.22 278.104 1246.93 276.543L1270.35 216.082C1276.88 200.186 1283.41 187.342 1289.94 177.549C1296.32 167.898 1305.69 163.001 1318.04 162.859C1330.24 163.001 1339.54 167.898 1345.93 177.549C1352.45 187.058 1358.98 199.902 1365.51 216.082L1388.93 276.543C1389.64 278.104 1390.07 279.807 1390.21 281.652C1390.49 285.626 1389.28 289.033 1386.59 291.871C1384.03 294.71 1380.7 296.129 1376.58 296.129C1371.9 296.129 1368.42 295.206 1366.15 293.361C1364.02 291.374 1362.25 288.891 1360.83 285.91L1356.78 274.84H1313.99C1310.02 274.84 1306.68 273.421 1303.99 270.582C1301.15 267.885 1299.73 264.55 1299.73 260.576ZM1534.76 164.562C1538.73 164.562 1542.14 165.911 1544.98 168.607C1547.82 171.162 1549.31 174.426 1549.45 178.4V229.707C1549.31 235.526 1549.66 240.919 1550.51 245.887C1551.51 250.712 1553.78 255.041 1557.33 258.873C1560.87 262.705 1565.35 264.763 1570.74 265.047H1638.86C1642.84 265.189 1646.1 266.679 1648.66 269.518C1651.35 272.356 1652.7 275.762 1652.7 279.736C1652.56 283.568 1651.14 286.833 1648.44 289.529C1645.89 292.084 1642.7 293.432 1638.86 293.574H1563.5C1553.57 293.007 1545.33 289.671 1538.8 283.568C1532.42 277.324 1527.81 269.73 1524.97 260.789C1522.27 251.848 1520.85 242.339 1520.71 232.262V178.4C1520.85 174.568 1522.27 171.375 1524.97 168.82C1527.66 166.124 1530.93 164.704 1534.76 164.562ZM1720.83 260.576C1720.83 256.602 1722.17 253.267 1724.87 250.57C1727.71 247.732 1731.12 246.312 1735.09 246.312H1767.66L1762.13 230.559C1759.86 224.74 1757.59 219.275 1755.31 214.166C1753.19 208.915 1750.7 204.16 1747.86 199.902C1745.31 195.645 1742.4 193.374 1739.13 193.09C1735.73 193.374 1732.68 195.645 1729.98 199.902C1727.28 204.16 1724.8 208.915 1722.53 214.166C1720.4 219.275 1718.2 224.74 1715.93 230.559L1695.71 285.91C1694.29 288.891 1692.44 291.374 1690.17 293.361C1688.04 295.206 1684.78 296.129 1680.38 296.129C1676.26 296.129 1672.85 294.71 1670.16 291.871C1667.6 289.033 1666.47 285.626 1666.75 281.652C1666.89 279.807 1667.32 278.104 1668.03 276.543L1691.45 216.082C1697.98 200.186 1704.5 187.342 1711.03 177.549C1717.42 167.898 1726.79 163.001 1739.13 162.859C1751.34 163.001 1760.64 167.898 1767.02 177.549C1773.55 187.058 1780.08 199.902 1786.61 216.082L1810.03 276.543C1810.74 278.104 1811.16 279.807 1811.3 281.652C1811.59 285.626 1810.38 289.033 1807.69 291.871C1805.13 294.71 1801.8 296.129 1797.68 296.129C1793 296.129 1789.52 295.206 1787.25 293.361C1785.12 291.374 1783.35 288.891 1781.93 285.91L1777.88 274.84H1735.09C1731.12 274.84 1727.78 273.421 1725.08 270.582C1722.25 267.885 1720.83 264.55 1720.83 260.576ZM1974.59 237.371C1977.29 243.048 1978.64 248.796 1978.64 254.615C1978.64 260.292 1977.22 265.969 1974.38 271.646C1971.54 277.182 1966.93 282.149 1960.54 286.549C1954.15 290.807 1945.99 292.936 1936.06 292.936H1934.78C1933.93 293.077 1933.08 293.148 1932.23 293.148H1846.64C1842.81 293.007 1839.55 291.658 1836.85 289.104C1834.3 286.407 1832.95 283.143 1832.81 279.311V181.807C1832.95 177.975 1834.3 174.781 1836.85 172.227C1839.55 169.53 1842.81 168.111 1846.64 167.969H1919.88C1920.73 167.969 1921.58 168.04 1922.43 168.182H1923.71C1933.65 168.465 1941.81 170.736 1948.19 174.994C1954.58 179.252 1959.19 184.148 1962.03 189.684C1964.87 195.077 1966.29 200.541 1966.29 206.076C1966.29 211.753 1964.94 217.288 1962.24 222.682C1962.1 222.965 1961.96 223.178 1961.82 223.32C1967.64 227.436 1971.9 232.12 1974.59 237.371ZM1937.34 264.621C1940.03 264.763 1942.23 264.266 1943.94 263.131C1945.78 261.995 1947.13 260.718 1947.98 259.299C1948.83 257.738 1949.26 256.176 1949.26 254.615C1949.26 253.622 1948.83 252.273 1947.98 250.57C1947.13 248.725 1945.78 247.235 1943.94 246.1C1942.23 244.964 1940.03 244.326 1937.34 244.184H1923.71H1861.55V258.873C1861.55 262.705 1863.53 264.621 1867.51 264.621H1869.21H1937.34ZM1931.8 213.74C1933.5 212.747 1934.78 211.611 1935.63 210.334C1936.48 208.915 1936.91 207.495 1936.91 206.076C1936.91 204.657 1936.48 203.309 1935.63 202.031C1934.78 200.612 1933.43 199.406 1931.59 198.412C1929.88 197.277 1927.68 196.638 1924.99 196.496H1867.51C1863.53 196.496 1861.55 198.412 1861.55 202.244V215.656H1924.99C1927.68 215.514 1929.96 214.876 1931.8 213.74ZM2138.3 182.232C2138.3 186.206 2136.89 189.542 2134.05 192.238C2131.35 195.077 2128.01 196.496 2124.04 196.496H2038.88C2036.19 196.638 2033.92 197.277 2032.07 198.412C2030.37 199.406 2029.09 200.612 2028.24 202.031C2027.39 203.309 2026.96 204.657 2026.96 206.076C2026.96 207.495 2027.39 208.915 2028.24 210.334C2029.09 211.611 2030.37 212.818 2032.07 213.953C2033.92 214.947 2036.19 215.514 2038.88 215.656H2099.35C2109.28 215.94 2117.44 218.282 2123.83 222.682C2130.36 226.939 2134.97 231.907 2137.67 237.584C2140.5 243.119 2141.92 248.796 2141.92 254.615C2141.92 260.292 2140.5 265.969 2137.67 271.646C2134.83 277.182 2130.21 282.149 2123.83 286.549C2117.44 290.807 2109.28 292.936 2099.35 292.936H2098.07C2097.22 293.077 2096.37 293.148 2095.51 293.148H2015.04C2011.07 293.148 2007.66 291.8 2004.82 289.104C2002.13 286.265 2000.78 282.859 2000.78 278.885C2000.78 274.911 2002.2 271.576 2005.04 268.879C2007.73 266.04 2011.07 264.621 2015.04 264.621H2100.62C2103.32 264.763 2105.52 264.266 2107.22 263.131C2109.07 261.995 2110.42 260.718 2111.27 259.299C2112.12 257.738 2112.54 256.176 2112.54 254.615C2112.54 253.622 2112.12 252.273 2111.27 250.57C2110.42 248.725 2109.07 247.235 2107.22 246.1C2105.52 244.964 2103.32 244.326 2100.62 244.184H2040.16C2030.23 243.9 2022 241.629 2015.47 237.371C2009.08 233.113 2004.47 228.288 2001.63 222.895C1998.93 217.359 1997.58 211.753 1997.58 206.076C1997.58 200.541 1999 195.077 2001.84 189.684C2004.68 184.148 2009.29 179.252 2015.68 174.994C2022.07 170.736 2030.23 168.465 2040.16 168.182H2041.44C2042.29 168.04 2043.14 167.969 2043.99 167.969H2124.04C2128.01 167.969 2131.35 169.388 2134.05 172.227C2136.89 174.923 2138.3 178.258 2138.3 182.232Z" fill="black"/>
<path d="M601.021 164.775L599.313 169.474L599.335 169.482L599.357 169.49L601.021 164.775ZM614.859 172.227L618.395 168.691L618.134 168.431L617.839 168.211L614.859 172.227ZM617.201 174.355L614 178.197L617.508 181.12L620.737 177.891L617.201 174.355ZM619.543 172.227L616.564 168.211L616.45 168.295L616.342 168.385L619.543 172.227ZM633.168 164.775L631.504 160.06L631.482 160.068L631.459 160.076L633.168 164.775ZM662.121 164.775L660.412 169.474L660.435 169.482L660.457 169.49L662.121 164.775ZM675.746 172.439L672.623 176.344L672.694 176.401L672.767 176.455L675.746 172.439ZM687.242 185.639L682.935 188.179L682.959 188.219L682.984 188.259L687.242 185.639ZM692.352 282.291L697.327 282.789L697.352 282.54V282.291H692.352ZM678.301 296.129V301.129H678.509L678.716 301.112L678.301 296.129ZM667.869 292.297L664.425 295.922L664.518 296.01L664.615 296.093L667.869 292.297ZM661.695 198.625L657.276 200.964L657.306 201.021L657.337 201.076L661.695 198.625ZM657.438 193.09L654.074 196.79L654.171 196.877L654.271 196.96L657.438 193.09ZM652.541 190.109L650.618 194.725L650.787 194.795L650.96 194.853L652.541 190.109ZM642.322 190.109L644.031 194.808L644.139 194.769L644.245 194.725L642.322 190.109ZM637.639 193.09L640.805 196.96L640.906 196.877L641.002 196.79L637.639 193.09ZM633.381 198.625L637.739 201.076L637.77 201.021L637.8 200.964L633.381 198.625ZM631.252 207.141L626.256 206.932L626.252 207.037V207.141H631.252ZM631.252 282.291L636.227 282.789L636.252 282.54V282.291H631.252ZM617.201 296.129V301.129H617.409L617.616 301.112L617.201 296.129ZM606.77 292.297L603.326 295.922L603.418 296.01L603.516 296.093L606.77 292.297ZM600.596 198.625L596.177 200.964L596.207 201.021L596.238 201.076L600.596 198.625ZM596.338 193.09L592.975 196.79L593.071 196.877L593.172 196.96L596.338 193.09ZM591.441 190.109L589.518 194.725L589.687 194.795L589.86 194.853L591.441 190.109ZM581.223 190.109L582.931 194.808L583.04 194.769L583.146 194.725L581.223 190.109ZM576.539 193.09L579.705 196.96L579.806 196.877L579.902 196.79L576.539 193.09ZM572.281 198.625L576.639 201.076L576.67 201.021L576.7 200.964L572.281 198.625ZM570.152 207.141L565.157 206.932L565.152 207.037V207.141H570.152ZM570.152 282.291L575.135 282.706L575.152 282.499V282.291H570.152ZM556.314 296.129V301.129H556.522L556.73 301.112L556.314 296.129ZM545.883 292.297L542.439 295.922L542.532 296.01L542.629 296.093L545.883 292.297ZM541.625 205.438L536.628 205.252L536.625 205.345V205.438H541.625ZM558.443 172.439L561.423 176.455L561.464 176.424L561.504 176.393L558.443 172.439ZM572.068 164.775L570.404 160.06L570.382 160.068L570.36 160.076L572.068 164.775ZM586.545 167.221C590.928 167.221 595.175 167.97 599.313 169.474L602.73 160.076C597.501 158.175 592.097 157.221 586.545 157.221V167.221ZM599.357 169.49C603.68 171.016 607.853 173.254 611.88 176.242L617.839 168.211C613.066 164.67 608.014 161.941 602.686 160.06L599.357 169.49ZM611.324 175.762C612.151 176.589 613.044 177.4 614 178.197L620.402 170.514C619.655 169.892 618.987 169.283 618.395 168.691L611.324 175.762ZM620.737 177.891C621.329 177.299 621.997 176.69 622.744 176.068L616.342 168.385C615.386 169.182 614.493 169.993 613.666 170.82L620.737 177.891ZM622.522 176.242C626.572 173.237 630.69 170.997 634.877 169.474L631.459 160.076C626.279 161.96 621.314 164.687 616.564 168.211L622.522 176.242ZM634.832 169.49C639.156 167.964 643.419 167.221 647.645 167.221V157.221C642.219 157.221 636.831 158.18 631.504 160.06L634.832 169.49ZM647.645 167.221C652.027 167.221 656.275 167.97 660.412 169.474L663.83 160.076C658.6 158.175 653.197 157.221 647.645 157.221V167.221ZM660.457 169.49C664.72 170.995 668.774 173.265 672.623 176.344L678.87 168.535C674.203 164.802 669.173 161.962 663.785 160.06L660.457 169.49ZM672.767 176.455C676.545 179.258 679.953 183.121 682.935 188.179L691.549 183.099C688.003 177.086 683.746 172.149 678.725 168.424L672.767 176.455ZM682.984 188.259C685.824 192.875 687.352 198.531 687.352 205.438H697.352C697.352 197.016 695.473 189.473 691.5 183.018L682.984 188.259ZM687.352 205.438V282.291H697.352V205.438H687.352ZM687.376 281.793C687.031 285.245 685.978 287.308 684.692 288.575C683.406 289.841 681.333 290.859 677.886 291.146L678.716 301.112C683.784 300.689 688.311 299.046 691.709 295.7C695.105 292.354 696.82 287.852 697.327 282.789L687.376 281.793ZM678.301 291.129C675.504 291.129 673.185 290.268 671.123 288.501L664.615 296.093C668.514 299.435 673.149 301.129 678.301 301.129V291.129ZM671.313 288.672C669.485 286.935 668.611 284.918 668.611 282.291H658.611C658.611 287.612 660.576 292.265 664.425 295.922L671.313 288.672ZM668.611 282.291V207.141H658.611V282.291H668.611ZM668.611 207.141C668.611 203.132 667.861 199.388 666.053 196.174L657.337 201.076C658.084 202.403 658.611 204.337 658.611 207.141H668.611ZM666.114 196.286C664.629 193.48 662.828 191.04 660.604 189.22L654.271 196.96C655.17 197.695 656.207 198.944 657.276 200.964L666.114 196.286ZM660.801 189.39C658.814 187.584 656.591 186.189 654.122 185.366L650.96 194.853C651.897 195.165 652.939 195.757 654.074 196.79L660.801 189.39ZM654.464 185.494C652.203 184.552 649.848 184.045 647.432 184.045V194.045C648.421 194.045 649.473 194.248 650.618 194.725L654.464 185.494ZM647.432 184.045C645.015 184.045 642.66 184.552 640.399 185.494L644.245 194.725C645.39 194.248 646.442 194.045 647.432 194.045V184.045ZM640.614 185.41C638.3 186.252 636.193 187.647 634.275 189.39L641.002 196.79C642.207 195.694 643.222 195.103 644.031 194.808L640.614 185.41ZM634.472 189.22C632.249 191.04 630.447 193.48 628.962 196.286L637.8 200.964C638.869 198.944 639.906 197.695 640.805 196.96L634.472 189.22ZM629.023 196.174C627.259 199.31 626.421 202.973 626.256 206.932L636.248 207.349C636.366 204.496 636.948 202.482 637.739 201.076L629.023 196.174ZM626.252 207.141V282.291H636.252V207.141H626.252ZM626.277 281.793C625.932 285.245 624.879 287.308 623.592 288.575C622.306 289.841 620.233 290.859 616.786 291.146L617.616 301.112C622.685 300.689 627.211 299.046 630.609 295.7C634.006 292.354 635.721 287.852 636.227 282.789L626.277 281.793ZM617.201 291.129C614.405 291.129 612.086 290.268 610.023 288.501L603.516 296.093C607.414 299.435 612.05 301.129 617.201 301.129V291.129ZM610.213 288.672C608.385 286.935 607.512 284.918 607.512 282.291H597.512C597.512 287.612 599.477 292.265 603.326 295.922L610.213 288.672ZM607.512 282.291V207.141H597.512V282.291H607.512ZM607.512 207.141C607.512 203.132 606.762 199.388 604.954 196.174L596.238 201.076C596.984 202.403 597.512 204.337 597.512 207.141H607.512ZM605.015 196.286C603.529 193.48 601.728 191.04 599.504 189.22L593.172 196.96C594.07 197.695 595.107 198.944 596.177 200.964L605.015 196.286ZM599.701 189.39C597.714 187.584 595.491 186.189 593.023 185.366L589.86 194.853C590.798 195.165 591.839 195.757 592.975 196.79L599.701 189.39ZM593.364 185.494C591.103 184.552 588.749 184.045 586.332 184.045V194.045C587.322 194.045 588.373 194.248 589.518 194.725L593.364 185.494ZM586.332 184.045C583.915 184.045 581.561 184.552 579.3 185.494L583.146 194.725C584.291 194.248 585.342 194.045 586.332 194.045V184.045ZM579.514 185.41C577.201 186.252 575.093 187.647 573.176 189.39L579.902 196.79C581.107 195.694 582.122 195.103 582.931 194.808L579.514 185.41ZM573.373 189.22C571.149 191.04 569.348 193.48 567.862 196.286L576.7 200.964C577.77 198.944 578.807 197.695 579.705 196.96L573.373 189.22ZM567.923 196.174C566.159 199.31 565.322 202.973 565.157 206.932L575.148 207.349C575.267 204.496 575.849 202.482 576.639 201.076L567.923 196.174ZM565.152 207.141V282.291H575.152V207.141H565.152ZM565.17 281.876C564.882 285.326 563.865 287.362 562.625 288.602C561.385 289.842 559.349 290.859 555.899 291.146L556.73 301.112C561.795 300.689 566.324 299.045 569.696 295.673C573.069 292.3 574.713 287.772 575.135 282.706L565.17 281.876ZM556.314 291.129C553.518 291.129 551.199 290.268 549.137 288.501L542.629 296.093C546.528 299.435 551.163 301.129 556.314 301.129V291.129ZM549.327 288.672C547.498 286.935 546.625 284.918 546.625 282.291H536.625C536.625 287.612 538.59 292.265 542.439 295.922L549.327 288.672ZM546.625 282.291V205.438H536.625V282.291H546.625ZM546.622 205.623C546.881 198.628 548.486 192.872 551.254 188.179L542.64 183.099C538.88 189.476 536.937 196.918 536.628 205.252L546.622 205.623ZM551.254 188.179C554.237 183.121 557.644 179.258 561.423 176.455L555.464 168.424C550.443 172.149 546.186 177.086 542.64 183.099L551.254 188.179ZM561.504 176.393C565.542 173.267 569.633 170.981 573.777 169.474L570.36 160.076C565.136 161.976 560.144 164.799 555.382 168.486L561.504 176.393ZM573.732 169.49C578.056 167.964 582.32 167.221 586.545 167.221V157.221C581.119 157.221 575.732 158.18 570.404 160.06L573.732 169.49ZM833.498 167.969L833.596 162.97L833.547 162.969H833.498V167.969ZM866.496 190.535L862.13 192.972L862.151 193.01L862.174 193.048L866.496 190.535ZM872.457 258.447L867.706 256.888L867.699 256.911L867.691 256.934L872.457 258.447ZM858.193 282.291L854.585 278.83L854.566 278.849L854.548 278.869L858.193 282.291ZM833.498 293.574V298.574H833.641L833.783 298.566L833.498 293.574ZM759.199 293.574L758.985 298.57L759.092 298.574H759.199V293.574ZM734.291 282.504L730.683 285.965L734.291 282.504ZM720.027 258.447L715.234 259.87L715.244 259.905L715.255 259.939L720.027 258.447ZM720.24 203.309L725.006 204.821L725.009 204.811L725.013 204.8L720.24 203.309ZM734.291 179.252L730.648 175.827L730.646 175.83L734.291 179.252ZM759.199 167.969V162.969H759.092L758.985 162.973L759.199 167.969ZM826.26 265.047V270.047H826.391L826.523 270.04L826.26 265.047ZM839.672 259.086L836.07 255.618L836.068 255.62L839.672 259.086ZM847.336 215.869L842.566 217.368L842.592 217.451L842.621 217.533L847.336 215.869ZM826.26 196.496L826.523 191.503L826.391 191.496H826.26V196.496ZM765.799 196.496V191.496H765.667L765.536 191.503L765.799 196.496ZM744.51 215.869L739.78 214.248L739.766 214.289L739.753 214.33L744.51 215.869ZM752.174 259.086L748.505 262.483L748.57 262.554L748.638 262.621L752.174 259.086ZM765.799 265.047L765.536 270.04L765.667 270.047H765.799V265.047ZM833.4 172.968C839.572 173.089 844.988 174.998 849.808 178.733L855.934 170.829C849.4 165.765 841.9 163.133 833.596 162.97L833.4 172.968ZM849.808 178.733C854.968 182.733 859.061 187.473 862.13 192.972L870.862 188.098C867.119 181.391 862.128 175.629 855.934 170.829L849.808 178.733ZM862.174 193.048C865.487 198.747 867.934 204.767 869.522 211.121L879.224 208.696C877.406 201.424 874.602 194.529 870.819 188.022L862.174 193.048ZM869.522 211.121C871.125 217.533 871.928 224.08 871.928 230.771H881.928C881.928 223.271 881.027 215.909 879.224 208.696L869.522 211.121ZM871.928 230.771C871.928 239.598 870.525 248.298 867.706 256.888L877.208 260.006C880.35 250.43 881.928 240.679 881.928 230.771H871.928ZM867.691 256.934C865.091 265.126 860.741 272.412 854.585 278.83L861.802 285.752C868.987 278.261 874.146 269.651 877.223 259.96L867.691 256.934ZM854.548 278.869C848.938 284.845 841.929 288.084 833.213 288.582L833.783 298.566C844.937 297.929 854.392 293.646 861.839 285.713L854.548 278.869ZM833.498 288.574H759.199V298.574H833.498V288.574ZM759.413 288.579C750.72 288.206 743.647 285.035 737.899 279.043L730.683 285.965C738.276 293.881 747.809 298.091 758.985 298.57L759.413 288.579ZM737.899 279.043C731.757 272.639 727.405 265.292 724.8 256.956L715.255 259.939C718.327 269.769 723.484 278.46 730.683 285.965L737.899 279.043ZM724.821 257.024C722.259 248.397 720.982 239.651 720.982 230.771H710.982C710.982 240.626 712.402 250.33 715.234 259.87L724.821 257.024ZM720.982 230.771C720.982 221.918 722.322 213.274 725.006 204.821L715.475 201.796C712.481 211.226 710.982 220.89 710.982 230.771H720.982ZM725.013 204.8C727.626 196.439 731.923 189.08 737.936 182.674L730.646 175.83C723.602 183.333 718.532 192.012 715.468 201.817L725.013 204.8ZM737.934 182.677C743.69 176.553 750.752 173.335 759.413 172.964L758.985 162.973C747.777 163.454 738.233 167.758 730.648 175.827L737.934 182.677ZM759.199 172.969H763.244V162.969H759.199V172.969ZM763.244 172.969H829.453V162.969H763.244V172.969ZM829.453 172.969H833.498V162.969H829.453V172.969ZM826.523 270.04C833.106 269.693 838.796 267.21 843.276 262.551L836.068 255.62C833.451 258.342 830.2 259.833 825.997 260.054L826.523 270.04ZM843.273 262.554C847.488 258.177 850.521 253.108 852.319 247.386L842.779 244.388C841.455 248.601 839.236 252.33 836.07 255.618L843.273 262.554ZM852.319 247.386C854.03 241.943 854.891 236.399 854.891 230.771H844.891C844.891 235.363 844.191 239.896 842.779 244.388L852.319 247.386ZM854.891 230.771C854.891 225.094 853.942 219.564 852.051 214.205L842.621 217.533C844.136 221.825 844.891 226.23 844.891 230.771H854.891ZM852.106 214.37C850.322 208.694 847.39 203.647 843.341 199.273L836.003 206.067C839.05 209.357 841.227 213.109 842.566 217.368L852.106 214.37ZM843.341 199.273C838.875 194.45 833.166 191.853 826.523 191.503L825.997 201.489C830.14 201.707 833.372 203.226 836.003 206.067L843.341 199.273ZM826.26 191.496H765.799V201.496H826.26V191.496ZM765.536 191.503C758.892 191.853 753.183 194.45 748.718 199.273L756.056 206.067C758.686 203.226 761.919 201.707 766.062 201.489L765.536 191.503ZM748.718 199.273C744.694 203.619 741.708 208.625 739.78 214.248L749.239 217.491C750.718 213.179 752.984 209.385 756.056 206.067L748.718 199.273ZM739.753 214.33C738.029 219.656 737.168 225.143 737.168 230.771H747.168C747.168 226.181 747.868 221.733 749.267 217.408L739.753 214.33ZM737.168 230.771C737.168 236.399 738.029 241.943 739.74 247.386L749.28 244.388C747.868 239.896 747.168 235.363 747.168 230.771H737.168ZM739.74 247.386C741.524 253.062 744.455 258.109 748.505 262.483L755.843 255.689C752.796 252.398 750.618 248.646 749.28 244.388L739.74 247.386ZM748.638 262.621C753.235 267.218 758.957 269.694 765.536 270.04L766.062 260.054C761.855 259.832 758.493 258.334 755.709 255.55L748.638 262.621ZM765.799 270.047H826.26V260.047H765.799V270.047ZM1014.46 167.969L1014.55 162.97L1014.5 162.969H1014.46V167.969ZM1047.45 190.535L1043.09 192.972L1043.11 193.01L1043.13 193.048L1047.45 190.535ZM1053.41 258.447L1048.66 256.888L1048.66 256.911L1048.65 256.934L1053.41 258.447ZM1039.15 282.291L1035.54 278.83L1035.52 278.849L1035.51 278.869L1039.15 282.291ZM1014.46 293.574V298.574H1014.6L1014.74 298.566L1014.46 293.574ZM940.156 293.574L939.942 298.57L940.049 298.574H940.156V293.574ZM915.248 282.504L911.64 285.965L915.248 282.504ZM900.984 258.447L896.191 259.87L896.201 259.905L896.212 259.939L900.984 258.447ZM901.197 203.309L905.963 204.821L905.966 204.811L905.97 204.8L901.197 203.309ZM915.248 179.252L911.605 175.827L911.603 175.83L915.248 179.252ZM940.156 167.969V162.969H940.049L939.942 162.973L940.156 167.969ZM1007.22 265.047V270.047H1007.35L1007.48 270.04L1007.22 265.047ZM1020.63 259.086L1017.03 255.618L1017.02 255.62L1020.63 259.086ZM1028.29 215.869L1023.52 217.368L1023.55 217.451L1023.58 217.533L1028.29 215.869ZM1007.22 196.496L1007.48 191.503L1007.35 191.496H1007.22V196.496ZM946.756 196.496V191.496H946.624L946.493 191.503L946.756 196.496ZM925.467 215.869L920.737 214.248L920.723 214.289L920.71 214.33L925.467 215.869ZM933.131 259.086L929.462 262.483L929.527 262.554L929.595 262.621L933.131 259.086ZM946.756 265.047L946.493 270.04L946.624 270.047H946.756V265.047ZM1014.36 172.968C1020.53 173.089 1025.95 174.998 1030.77 178.733L1036.89 170.829C1030.36 165.765 1022.86 163.133 1014.55 162.97L1014.36 172.968ZM1030.77 178.733C1035.93 182.733 1040.02 187.473 1043.09 192.972L1051.82 188.098C1048.08 181.391 1043.08 175.629 1036.89 170.829L1030.77 178.733ZM1043.13 193.048C1046.44 198.747 1048.89 204.767 1050.48 211.121L1060.18 208.696C1058.36 201.424 1055.56 194.529 1051.78 188.022L1043.13 193.048ZM1050.48 211.121C1052.08 217.533 1052.88 224.08 1052.88 230.771H1062.88C1062.88 223.271 1061.98 215.909 1060.18 208.696L1050.48 211.121ZM1052.88 230.771C1052.88 239.598 1051.48 248.298 1048.66 256.888L1058.16 260.006C1061.31 250.43 1062.88 240.679 1062.88 230.771H1052.88ZM1048.65 256.934C1046.05 265.126 1041.7 272.412 1035.54 278.83L1042.76 285.752C1049.94 278.261 1055.1 269.651 1058.18 259.96L1048.65 256.934ZM1035.51 278.869C1029.89 284.845 1022.89 288.084 1014.17 288.582L1014.74 298.566C1025.89 297.929 1035.35 293.646 1042.8 285.713L1035.51 278.869ZM1014.46 288.574H940.156V298.574H1014.46V288.574ZM940.37 288.579C931.677 288.206 924.604 285.035 918.856 279.043L911.64 285.965C919.233 293.881 928.766 298.091 939.942 298.57L940.37 288.579ZM918.856 279.043C912.714 272.639 908.362 265.292 905.757 256.956L896.212 259.939C899.284 269.769 904.441 278.46 911.64 285.965L918.856 279.043ZM905.778 257.024C903.217 248.397 901.939 239.651 901.939 230.771H891.939C891.939 240.626 893.359 250.33 896.191 259.87L905.778 257.024ZM901.939 230.771C901.939 221.918 903.279 213.274 905.963 204.821L896.432 201.796C893.438 211.226 891.939 220.89 891.939 230.771H901.939ZM905.97 204.8C908.583 196.439 912.88 189.08 918.893 182.674L911.603 175.83C904.559 183.333 899.489 192.012 896.425 201.817L905.97 204.8ZM918.891 182.677C924.647 176.553 931.709 173.335 940.37 172.964L939.942 162.973C928.734 163.454 919.19 167.758 911.605 175.827L918.891 182.677ZM940.156 172.969H944.201V162.969H940.156V172.969ZM944.201 172.969H1010.41V162.969H944.201V172.969ZM1010.41 172.969H1014.46V162.969H1010.41V172.969ZM1007.48 270.04C1014.06 269.693 1019.75 267.21 1024.23 262.551L1017.02 255.62C1014.41 258.342 1011.16 259.833 1006.95 260.054L1007.48 270.04ZM1024.23 262.554C1028.45 258.177 1031.48 253.108 1033.28 247.386L1023.74 244.388C1022.41 248.601 1020.19 252.33 1017.03 255.618L1024.23 262.554ZM1033.28 247.386C1034.99 241.943 1035.85 236.399 1035.85 230.771H1025.85C1025.85 235.363 1025.15 239.896 1023.74 244.388L1033.28 247.386ZM1035.85 230.771C1035.85 225.094 1034.9 219.564 1033.01 214.205L1023.58 217.533C1025.09 221.825 1025.85 226.23 1025.85 230.771H1035.85ZM1033.06 214.37C1031.28 208.694 1028.35 203.647 1024.3 199.273L1016.96 206.067C1020.01 209.357 1022.18 213.109 1023.52 217.368L1033.06 214.37ZM1024.3 199.273C1019.83 194.45 1014.12 191.853 1007.48 191.503L1006.95 201.489C1011.1 201.707 1014.33 203.226 1016.96 206.067L1024.3 199.273ZM1007.22 191.496H946.756V201.496H1007.22V191.496ZM946.493 191.503C939.849 191.853 934.14 194.45 929.675 199.273L937.013 206.067C939.643 203.226 942.876 201.707 947.019 201.489L946.493 191.503ZM929.675 199.273C925.651 203.619 922.665 208.625 920.737 214.248L930.197 217.491C931.675 213.179 933.941 209.385 937.013 206.067L929.675 199.273ZM920.71 214.33C918.986 219.656 918.125 225.143 918.125 230.771H928.125C928.125 226.181 928.825 221.733 930.224 217.408L920.71 214.33ZM918.125 230.771C918.125 236.399 918.986 241.943 920.697 247.386L930.237 244.388C928.825 239.896 928.125 235.363 928.125 230.771H918.125ZM920.697 247.386C922.481 253.062 925.412 258.109 929.462 262.483L936.8 255.689C933.753 252.398 931.575 248.646 930.237 244.388L920.697 247.386ZM929.595 262.621C934.192 267.218 939.914 269.694 946.493 270.04L947.019 260.054C942.812 259.832 939.45 258.334 936.666 255.55L929.595 262.621ZM946.756 270.047H1007.22V260.047H946.756V270.047ZM1081.09 172.227L1084.63 175.762L1081.09 172.227ZM1225.43 172.014L1229.05 168.57L1228.97 168.477L1228.87 168.389L1225.43 172.014ZM1225.22 192.451L1221.68 188.916L1225.22 192.451ZM1167.74 196.496V191.496H1162.74V196.496H1167.74ZM1167.74 282.717L1172.71 283.214L1172.74 282.966V282.717H1167.74ZM1153.69 296.555V301.555H1153.89L1154.1 301.537L1153.69 296.555ZM1143.25 292.723L1139.81 296.348L1139.9 296.436L1140 296.519L1143.25 292.723ZM1139 196.496H1144V191.496H1139V196.496ZM1081.3 192.238L1084.93 188.795L1084.84 188.702L1084.75 188.613L1081.3 192.238ZM1082.04 182.232C1082.04 179.522 1082.91 177.478 1084.63 175.762L1077.55 168.691C1073.88 172.368 1072.04 176.995 1072.04 182.232H1082.04ZM1084.63 175.762C1086.54 173.851 1088.68 172.969 1091.31 172.969V162.969C1085.99 162.969 1081.32 164.926 1077.55 168.691L1084.63 175.762ZM1091.31 172.969H1215.21V162.969H1091.31V172.969ZM1215.21 172.969C1217.92 172.969 1220.09 173.839 1221.99 175.639L1228.87 168.389C1225.09 164.795 1220.45 162.969 1215.21 162.969V172.969ZM1221.8 175.457C1223.6 177.351 1224.47 179.519 1224.47 182.232H1234.47C1234.47 176.998 1232.65 172.353 1229.05 168.57L1221.8 175.457ZM1224.47 182.232C1224.47 184.865 1223.59 187.004 1221.68 188.916L1228.75 195.987C1232.52 192.221 1234.47 187.548 1234.47 182.232H1224.47ZM1221.68 188.916C1219.97 190.631 1217.92 191.496 1215.21 191.496V201.496C1220.45 201.496 1225.07 199.664 1228.75 195.987L1221.68 188.916ZM1215.21 191.496H1167.74V201.496H1215.21V191.496ZM1162.74 196.496V282.717H1172.74V196.496H1162.74ZM1162.76 282.219C1162.42 285.671 1161.36 287.733 1160.08 289.001C1158.79 290.267 1156.72 291.285 1153.27 291.572L1154.1 301.537C1159.17 301.115 1163.7 299.472 1167.09 296.125C1170.49 292.78 1172.21 288.278 1172.71 283.214L1162.76 282.219ZM1153.69 291.555C1150.89 291.555 1148.57 290.694 1146.51 288.926L1140 296.519C1143.9 299.861 1148.53 301.555 1153.69 301.555V291.555ZM1146.7 289.098C1144.87 287.361 1144 285.343 1144 282.717H1134C1134 288.038 1135.96 292.691 1139.81 296.348L1146.7 289.098ZM1144 282.717V196.496H1134V282.717H1144ZM1139 191.496H1091.31V201.496H1139V191.496ZM1091.31 191.496C1088.68 191.496 1086.66 190.623 1084.93 188.795L1077.68 195.682C1081.33 199.531 1085.99 201.496 1091.31 201.496V191.496ZM1084.75 188.613C1082.92 186.877 1082.04 184.859 1082.04 182.232H1072.04C1072.04 187.554 1074.01 192.207 1077.86 195.863L1084.75 188.613ZM1303.77 250.57L1307.31 254.106L1303.77 250.57ZM1346.56 246.312V251.312H1353.62L1351.28 244.655L1346.56 246.312ZM1341.03 230.559L1345.75 228.901L1345.72 228.821L1345.69 228.741L1341.03 230.559ZM1334.22 214.166L1329.58 216.045L1329.61 216.121L1329.65 216.197L1334.22 214.166ZM1326.77 199.902L1322.48 202.475L1322.54 202.577L1322.61 202.676L1326.77 199.902ZM1318.04 193.09L1318.47 188.109L1318.05 188.072L1317.62 188.107L1318.04 193.09ZM1301.43 214.166L1296.84 212.181L1296.83 212.212L1296.82 212.243L1301.43 214.166ZM1294.83 230.559L1290.17 228.741L1290.15 228.792L1290.14 228.843L1294.83 230.559ZM1274.61 285.91L1279.12 288.06L1279.22 287.847L1279.3 287.626L1274.61 285.91ZM1269.07 293.361L1272.35 297.14L1272.36 297.132L1272.36 297.124L1269.07 293.361ZM1249.06 291.871L1245.34 295.216L1245.39 295.266L1245.44 295.315L1249.06 291.871ZM1245.65 281.652L1240.67 281.269L1240.67 281.282L1240.67 281.296L1245.65 281.652ZM1246.93 276.543L1251.48 278.612L1251.54 278.482L1251.59 278.349L1246.93 276.543ZM1270.35 216.082L1265.72 214.182L1265.71 214.229L1265.69 214.276L1270.35 216.082ZM1289.94 177.549L1294.1 180.322L1294.1 180.315L1294.11 180.308L1289.94 177.549ZM1318.04 162.859L1318.1 157.86L1318.04 157.859L1317.98 157.86L1318.04 162.859ZM1345.93 177.549L1341.76 180.308L1341.78 180.344L1341.8 180.379L1345.93 177.549ZM1365.51 216.082L1370.17 214.276L1370.16 214.244L1370.15 214.211L1365.51 216.082ZM1388.93 276.543L1384.27 278.349L1384.32 278.482L1384.38 278.612L1388.93 276.543ZM1390.21 281.652L1395.19 281.296L1395.19 281.282L1395.19 281.269L1390.21 281.652ZM1386.59 291.871L1382.96 288.427L1382.92 288.476L1382.87 288.526L1386.59 291.871ZM1366.15 293.361L1362.74 297.017L1362.86 297.134L1363 297.242L1366.15 293.361ZM1360.83 285.91L1356.13 287.626L1356.21 287.847L1356.31 288.06L1360.83 285.91ZM1356.78 274.84L1361.48 273.124L1360.28 269.84H1356.78V274.84ZM1303.99 270.582L1307.61 267.138L1307.52 267.045L1307.43 266.957L1303.99 270.582ZM1304.73 260.576C1304.73 257.866 1305.59 255.822 1307.31 254.106L1300.24 247.035C1296.56 250.712 1294.73 255.338 1294.73 260.576H1304.73ZM1307.31 254.106C1309.22 252.194 1311.36 251.312 1313.99 251.312V241.312C1308.68 241.312 1304 243.269 1300.24 247.035L1307.31 254.106ZM1313.99 251.312H1346.56V241.312H1313.99V251.312ZM1351.28 244.655L1345.75 228.901L1336.31 232.216L1341.85 247.97L1351.28 244.655ZM1345.69 228.741C1343.39 222.858 1341.09 217.323 1338.79 212.135L1329.65 216.197C1331.88 221.228 1334.13 226.621 1336.37 232.376L1345.69 228.741ZM1338.85 212.287C1336.61 206.756 1333.97 201.696 1330.93 197.129L1322.61 202.676C1325.24 206.624 1327.57 211.074 1329.58 216.045L1338.85 212.287ZM1331.05 197.33C1328.12 192.433 1324.03 188.592 1318.47 188.109L1317.6 198.071C1318.58 198.156 1320.31 198.856 1322.48 202.475L1331.05 197.33ZM1317.62 188.107C1312.02 188.574 1307.78 192.3 1304.66 197.227L1313.11 202.578C1315.38 198.989 1317.24 198.173 1318.45 198.073L1317.62 188.107ZM1304.66 197.227C1301.81 201.732 1299.2 206.722 1296.84 212.181L1306.02 216.151C1308.2 211.107 1310.57 206.588 1313.11 202.578L1304.66 197.227ZM1296.82 212.243C1294.67 217.391 1292.46 222.891 1290.17 228.741L1299.49 232.376C1301.75 226.588 1303.93 221.159 1306.05 216.089L1296.82 212.243ZM1290.14 228.843L1269.91 284.194L1279.3 287.626L1299.53 232.275L1290.14 228.843ZM1270.09 283.76C1268.94 286.184 1267.49 288.101 1265.78 289.598L1272.36 297.124C1275.2 294.648 1277.44 291.597 1279.12 288.06L1270.09 283.76ZM1265.8 289.583C1264.97 290.302 1263.12 291.129 1259.28 291.129V301.129C1264.24 301.129 1268.92 300.111 1272.35 297.14L1265.8 289.583ZM1259.28 291.129C1256.46 291.129 1254.39 290.217 1252.69 288.427L1245.44 295.315C1249.13 299.203 1253.87 301.129 1259.28 301.129V291.129ZM1252.78 288.526C1251.17 286.746 1250.45 284.693 1250.64 282.009L1240.67 281.296C1240.29 286.559 1241.84 291.32 1245.34 295.216L1252.78 288.526ZM1250.64 282.036C1250.74 280.727 1251.03 279.6 1251.48 278.612L1242.38 274.474C1241.41 276.608 1240.85 278.887 1240.67 281.269L1250.64 282.036ZM1251.59 278.349L1275.01 217.888L1265.69 214.276L1242.27 274.737L1251.59 278.349ZM1274.97 217.982C1281.43 202.266 1287.81 189.746 1294.1 180.322L1285.78 174.775C1279 184.937 1272.33 198.107 1265.72 214.182L1274.97 217.982ZM1294.11 180.308C1299.51 172.146 1307.27 167.983 1318.09 167.859L1317.98 157.86C1304.11 158.019 1293.14 163.65 1285.77 174.789L1294.11 180.308ZM1317.98 167.859C1328.64 167.983 1336.34 172.127 1341.76 180.308L1350.1 174.789C1342.74 163.669 1331.85 158.02 1318.1 157.86L1317.98 167.859ZM1341.8 180.379C1348.05 189.477 1354.42 201.958 1360.87 217.953L1370.15 214.211C1363.55 197.847 1356.86 184.639 1350.05 174.719L1341.8 180.379ZM1360.85 217.888L1384.27 278.349L1393.59 274.737L1370.17 214.276L1360.85 217.888ZM1384.38 278.612C1384.83 279.6 1385.12 280.727 1385.22 282.036L1395.19 281.269C1395.01 278.887 1394.45 276.608 1393.48 274.474L1384.38 278.612ZM1385.22 282.009C1385.41 284.609 1384.67 286.628 1382.96 288.427L1390.21 295.315C1393.9 291.437 1395.58 286.644 1395.19 281.296L1385.22 282.009ZM1382.87 288.526C1381.34 290.223 1379.4 291.129 1376.58 291.129V301.129C1381.99 301.129 1386.72 299.197 1390.3 295.216L1382.87 288.526ZM1376.58 291.129C1372.4 291.129 1370.29 290.279 1369.3 289.481L1363 297.242C1366.56 300.134 1371.39 301.129 1376.58 301.129V291.129ZM1369.56 289.706C1367.95 288.201 1366.53 286.249 1365.34 283.76L1356.31 288.06C1357.97 291.532 1360.09 294.548 1362.74 297.017L1369.56 289.706ZM1365.52 284.194L1361.48 273.124L1352.09 276.556L1356.13 287.626L1365.52 284.194ZM1356.78 269.84H1313.99V279.84H1356.78V269.84ZM1313.99 269.84C1311.37 269.84 1309.35 268.966 1307.61 267.138L1300.36 274.026C1304.02 277.875 1308.67 279.84 1313.99 279.84V269.84ZM1307.43 266.957C1305.6 265.22 1304.73 263.203 1304.73 260.576H1294.73C1294.73 265.897 1296.69 270.551 1300.54 274.207L1307.43 266.957ZM1534.76 164.562V159.562H1534.67L1534.57 159.566L1534.76 164.562ZM1544.98 168.607L1541.53 172.232L1541.58 172.279L1541.63 172.324L1544.98 168.607ZM1549.45 178.4H1554.45V178.311L1554.45 178.222L1549.45 178.4ZM1549.45 229.707L1554.45 229.829L1554.45 229.768V229.707H1549.45ZM1550.51 245.887L1545.59 246.732L1545.6 246.814L1545.62 246.895L1550.51 245.887ZM1570.74 265.047L1570.48 270.04L1570.61 270.047H1570.74V265.047ZM1638.86 265.047L1639.04 260.05L1638.95 260.047H1638.86V265.047ZM1648.66 269.518L1644.94 272.862L1644.98 272.912L1645.03 272.961L1648.66 269.518ZM1652.7 279.736L1657.7 279.921L1657.7 279.829V279.736H1652.7ZM1648.44 289.529L1651.98 293.065L1648.44 289.529ZM1638.86 293.574V298.574H1638.96L1639.05 298.571L1638.86 293.574ZM1563.5 293.574L1563.21 298.566L1563.36 298.574H1563.5V293.574ZM1538.8 283.568L1535.31 287.143L1535.35 287.183L1535.39 287.221L1538.8 283.568ZM1524.97 260.789L1520.18 262.233L1520.19 262.267L1520.2 262.302L1524.97 260.789ZM1520.71 232.262H1515.71V232.297L1515.71 232.332L1520.71 232.262ZM1520.71 178.4L1515.71 178.215L1515.71 178.308V178.4H1520.71ZM1524.97 168.82L1528.41 172.45L1528.45 172.404L1528.5 172.356L1524.97 168.82ZM1534.76 169.562C1537.47 169.562 1539.64 170.433 1541.53 172.232L1548.42 164.982C1544.64 161.388 1539.99 159.562 1534.76 159.562V169.562ZM1541.63 172.324C1543.42 173.931 1544.36 175.897 1544.45 178.579L1554.45 178.222C1554.26 172.956 1552.22 168.393 1548.32 164.891L1541.63 172.324ZM1544.45 178.4V229.707H1554.45V178.4H1544.45ZM1544.45 229.585C1544.3 235.679 1544.67 241.4 1545.59 246.732L1555.44 245.042C1554.65 240.438 1554.31 235.373 1554.45 229.829L1544.45 229.585ZM1545.62 246.895C1546.8 252.668 1549.53 257.811 1553.66 262.27L1560.99 255.476C1558.03 252.271 1556.21 248.756 1555.41 244.878L1545.62 246.895ZM1553.66 262.27C1558.12 267.093 1563.83 269.69 1570.48 270.04L1571 260.054C1566.86 259.836 1563.63 258.317 1560.99 255.476L1553.66 262.27ZM1570.74 270.047H1638.86V260.047H1570.74V270.047ZM1638.68 270.044C1641.37 270.139 1643.33 271.077 1644.94 272.862L1652.37 266.173C1648.87 262.281 1644.31 260.238 1639.04 260.05L1638.68 270.044ZM1645.03 272.961C1646.83 274.855 1647.7 277.023 1647.7 279.736H1657.7C1657.7 274.502 1655.88 269.857 1652.28 266.074L1645.03 272.961ZM1647.7 279.551C1647.61 282.13 1646.71 284.195 1644.91 285.994L1651.98 293.065C1655.57 289.47 1657.51 285.007 1657.7 279.921L1647.7 279.551ZM1644.91 285.994C1643.3 287.598 1641.33 288.479 1638.68 288.578L1639.05 298.571C1644.06 298.385 1648.47 296.57 1651.98 293.065L1644.91 285.994ZM1638.86 288.574H1563.5V298.574H1638.86V288.574ZM1563.79 288.582C1554.88 288.073 1547.8 285.128 1542.22 279.916L1535.39 287.221C1542.87 294.214 1552.25 297.94 1563.21 298.566L1563.79 288.582ZM1542.3 279.993C1536.53 274.35 1532.34 267.477 1529.73 259.276L1520.2 262.302C1523.27 271.984 1528.31 280.297 1535.31 287.143L1542.3 279.993ZM1529.75 259.345C1527.2 250.883 1525.84 241.839 1525.71 232.191L1515.71 232.332C1515.86 242.838 1517.34 252.812 1520.18 262.233L1529.75 259.345ZM1525.71 232.262V178.4H1515.71V232.262H1525.71ZM1525.71 178.585C1525.8 176.014 1526.69 174.073 1528.41 172.45L1521.53 165.191C1517.85 168.677 1515.9 173.123 1515.71 178.215L1525.71 178.585ZM1528.5 172.356C1530.3 170.557 1532.37 169.655 1534.94 169.559L1534.57 159.566C1529.49 159.754 1525.03 161.69 1521.43 165.285L1528.5 172.356ZM1724.87 250.57L1728.41 254.106L1724.87 250.57ZM1767.66 246.312V251.312H1774.72L1772.38 244.655L1767.66 246.312ZM1762.13 230.559L1766.84 228.901L1766.82 228.821L1766.78 228.741L1762.13 230.559ZM1755.31 214.166L1750.68 216.045L1750.71 216.121L1750.75 216.197L1755.31 214.166ZM1747.86 199.902L1743.58 202.475L1743.64 202.577L1743.7 202.676L1747.86 199.902ZM1739.13 193.09L1739.57 188.109L1739.14 188.072L1738.72 188.107L1739.13 193.09ZM1722.53 214.166L1717.94 212.181L1717.93 212.212L1717.91 212.243L1722.53 214.166ZM1715.93 230.559L1711.27 228.741L1711.25 228.792L1711.23 228.843L1715.93 230.559ZM1695.71 285.91L1700.22 288.06L1700.32 287.847L1700.4 287.626L1695.71 285.91ZM1690.17 293.361L1693.44 297.14L1693.45 297.132L1693.46 297.124L1690.17 293.361ZM1670.16 291.871L1666.44 295.216L1666.49 295.266L1666.53 295.315L1670.16 291.871ZM1666.75 281.652L1661.77 281.269L1661.77 281.282L1661.76 281.296L1666.75 281.652ZM1668.03 276.543L1672.58 278.612L1672.64 278.482L1672.69 278.349L1668.03 276.543ZM1691.45 216.082L1686.82 214.182L1686.8 214.229L1686.78 214.276L1691.45 216.082ZM1711.03 177.549L1715.19 180.322L1715.2 180.315L1715.2 180.308L1711.03 177.549ZM1739.13 162.859L1739.19 157.86L1739.14 157.859L1739.08 157.86L1739.13 162.859ZM1767.02 177.549L1762.85 180.308L1762.88 180.344L1762.9 180.379L1767.02 177.549ZM1786.61 216.082L1791.27 214.276L1791.26 214.244L1791.25 214.211L1786.61 216.082ZM1810.03 276.543L1805.36 278.349L1805.42 278.482L1805.48 278.612L1810.03 276.543ZM1811.3 281.652L1816.29 281.296L1816.29 281.282L1816.29 281.269L1811.3 281.652ZM1807.69 291.871L1804.06 288.427L1804.01 288.476L1803.97 288.526L1807.69 291.871ZM1787.25 293.361L1783.84 297.017L1783.96 297.134L1784.1 297.242L1787.25 293.361ZM1781.93 285.91L1777.23 287.626L1777.31 287.847L1777.41 288.06L1781.93 285.91ZM1777.88 274.84L1782.58 273.124L1781.38 269.84H1777.88V274.84ZM1725.08 270.582L1728.71 267.138L1728.62 267.045L1728.53 266.957L1725.08 270.582ZM1725.83 260.576C1725.83 257.866 1726.69 255.822 1728.41 254.106L1721.34 247.035C1717.66 250.712 1715.83 255.338 1715.83 260.576H1725.83ZM1728.41 254.106C1730.32 252.194 1732.46 251.312 1735.09 251.312V241.312C1729.77 241.312 1725.1 243.269 1721.34 247.035L1728.41 254.106ZM1735.09 251.312H1767.66V241.312H1735.09V251.312ZM1772.38 244.655L1766.84 228.901L1757.41 232.216L1762.94 247.97L1772.38 244.655ZM1766.78 228.741C1764.49 222.858 1762.19 217.323 1759.88 212.135L1750.75 216.197C1752.98 221.228 1755.22 226.621 1757.47 232.376L1766.78 228.741ZM1759.95 212.287C1757.71 206.756 1755.07 201.696 1752.02 197.129L1743.7 202.676C1746.34 206.624 1748.67 211.074 1750.68 216.045L1759.95 212.287ZM1752.15 197.33C1749.21 192.433 1745.12 188.592 1739.57 188.109L1738.7 198.071C1739.67 198.156 1741.4 198.856 1743.58 202.475L1752.15 197.33ZM1738.72 188.107C1733.12 188.574 1728.88 192.3 1725.76 197.227L1734.2 202.578C1736.48 198.989 1738.34 198.173 1739.55 198.073L1738.72 188.107ZM1725.76 197.227C1722.9 201.732 1720.3 206.722 1717.94 212.181L1727.12 216.151C1729.3 211.107 1731.66 206.588 1734.2 202.578L1725.76 197.227ZM1717.91 212.243C1715.77 217.391 1713.55 222.891 1711.27 228.741L1720.59 232.376C1722.85 226.588 1725.03 221.159 1727.14 216.089L1717.91 212.243ZM1711.23 228.843L1691.01 284.194L1700.4 287.626L1720.63 232.275L1711.23 228.843ZM1691.19 283.76C1690.04 286.184 1688.59 288.101 1686.88 289.598L1693.46 297.124C1696.29 294.648 1698.53 291.597 1700.22 288.06L1691.19 283.76ZM1686.9 289.583C1686.07 290.302 1684.22 291.129 1680.38 291.129V301.129C1685.34 301.129 1690.02 300.111 1693.44 297.14L1686.9 289.583ZM1680.38 291.129C1677.55 291.129 1675.48 290.217 1673.78 288.427L1666.53 295.315C1670.23 299.203 1674.97 301.129 1680.38 301.129V291.129ZM1673.87 288.526C1672.27 286.746 1671.55 284.693 1671.74 282.009L1661.76 281.296C1661.39 286.559 1662.94 291.32 1666.44 295.216L1673.87 288.526ZM1671.74 282.036C1671.84 280.727 1672.13 279.6 1672.58 278.612L1663.48 274.474C1662.51 276.608 1661.95 278.887 1661.77 281.269L1671.74 282.036ZM1672.69 278.349L1696.11 217.888L1686.78 214.276L1663.37 274.737L1672.69 278.349ZM1696.07 217.982C1702.53 202.266 1708.91 189.746 1715.19 180.322L1706.87 174.775C1700.1 184.937 1693.42 198.107 1686.82 214.182L1696.07 217.982ZM1715.2 180.308C1720.6 172.146 1728.37 167.983 1739.19 167.859L1739.08 157.86C1725.2 158.019 1714.24 163.65 1706.86 174.789L1715.2 180.308ZM1739.08 167.859C1749.73 167.983 1757.44 172.127 1762.85 180.308L1771.19 174.789C1763.83 163.669 1752.95 158.02 1739.19 157.86L1739.08 167.859ZM1762.9 180.379C1769.15 189.477 1775.52 201.958 1781.97 217.953L1791.25 214.211C1784.64 197.847 1777.96 184.639 1771.15 174.719L1762.9 180.379ZM1781.95 217.888L1805.36 278.349L1814.69 274.737L1791.27 214.276L1781.95 217.888ZM1805.48 278.612C1805.92 279.6 1806.22 280.727 1806.32 282.036L1816.29 281.269C1816.11 278.887 1815.55 276.608 1814.58 274.474L1805.48 278.612ZM1806.32 282.009C1806.5 284.609 1805.77 286.628 1804.06 288.427L1811.31 295.315C1814.99 291.437 1816.67 286.644 1816.29 281.296L1806.32 282.009ZM1803.97 288.526C1802.44 290.223 1800.5 291.129 1797.68 291.129V301.129C1803.09 301.129 1807.82 299.197 1811.4 295.216L1803.97 288.526ZM1797.68 291.129C1793.5 291.129 1791.38 290.279 1790.4 289.481L1784.1 297.242C1787.65 300.134 1792.49 301.129 1797.68 301.129V291.129ZM1790.66 289.706C1789.05 288.201 1787.63 286.249 1786.44 283.76L1777.41 288.06C1779.06 291.532 1781.19 294.548 1783.84 297.017L1790.66 289.706ZM1786.62 284.194L1782.58 273.124L1773.18 276.556L1777.23 287.626L1786.62 284.194ZM1777.88 269.84H1735.09V279.84H1777.88V269.84ZM1735.09 269.84C1732.46 269.84 1730.45 268.966 1728.71 267.138L1721.46 274.026C1725.12 277.875 1729.77 279.84 1735.09 279.84V269.84ZM1728.53 266.957C1726.7 265.22 1725.83 263.203 1725.83 260.576H1715.83C1715.83 265.897 1717.79 270.551 1721.64 274.207L1728.53 266.957ZM1974.59 237.371L1979.11 235.226L1979.07 235.156L1979.04 235.087L1974.59 237.371ZM1974.38 271.646L1978.83 273.928L1978.84 273.905L1978.85 273.883L1974.38 271.646ZM1960.54 286.549L1963.31 290.709L1963.35 290.688L1963.38 290.666L1960.54 286.549ZM1934.78 292.936V287.936H1934.37L1933.96 288.004L1934.78 292.936ZM1846.64 293.148L1846.46 298.145L1846.55 298.148H1846.64V293.148ZM1836.85 289.104L1833.22 292.542L1833.31 292.64L1833.41 292.733L1836.85 289.104ZM1832.81 279.311H1827.81V279.403L1827.81 279.496L1832.81 279.311ZM1832.81 181.807L1827.81 181.622L1827.81 181.714V181.807H1832.81ZM1836.85 172.227L1833.32 168.691L1836.85 172.227ZM1846.64 167.969V162.969H1846.55L1846.46 162.972L1846.64 167.969ZM1922.43 168.182L1921.61 173.114L1922.02 173.182H1922.43V168.182ZM1923.71 168.182L1923.85 163.184L1923.78 163.182H1923.71V168.182ZM1962.03 189.684L1957.58 191.965L1957.59 191.989L1957.61 192.012L1962.03 189.684ZM1962.24 222.682L1957.77 220.446L1962.24 222.682ZM1961.82 223.32L1958.28 219.785L1954.09 223.978L1958.93 227.402L1961.82 223.32ZM1937.34 264.621L1937.6 259.628L1937.47 259.621H1937.34V264.621ZM1943.94 263.131L1941.32 258.873L1941.24 258.92L1941.16 258.971L1943.94 263.131ZM1947.98 259.299L1952.27 261.871L1952.32 261.783L1952.37 261.693L1947.98 259.299ZM1947.98 250.57L1943.44 252.666L1943.47 252.737L1943.51 252.806L1947.98 250.57ZM1943.94 246.1L1941.16 250.26L1941.24 250.31L1941.32 250.358L1943.94 246.1ZM1937.34 244.184L1937.6 239.191L1937.47 239.184H1937.34V244.184ZM1861.55 244.184V239.184H1856.55V244.184H1861.55ZM1931.8 213.74L1929.28 209.421L1929.23 209.451L1929.18 209.482L1931.8 213.74ZM1935.63 210.334L1939.79 213.107L1939.86 213.008L1939.92 212.906L1935.63 210.334ZM1935.63 202.031L1931.35 204.604L1931.41 204.706L1931.47 204.805L1935.63 202.031ZM1931.59 198.412L1928.81 202.572L1929.01 202.703L1929.22 202.814L1931.59 198.412ZM1924.99 196.496L1925.25 191.503L1925.12 191.496H1924.99V196.496ZM1861.55 215.656H1856.55V220.656H1861.55V215.656ZM1924.99 215.656V220.656H1925.12L1925.25 220.649L1924.99 215.656ZM1970.08 239.516C1972.48 244.578 1973.64 249.597 1973.64 254.615H1983.64C1983.64 247.996 1982.1 241.519 1979.11 235.226L1970.08 239.516ZM1973.64 254.615C1973.64 259.428 1972.44 264.345 1969.91 269.41L1978.85 273.883C1982 267.594 1983.64 261.156 1983.64 254.615H1973.64ZM1969.93 269.365C1967.55 274.004 1963.58 278.387 1957.7 282.431L1963.38 290.666C1970.28 285.911 1975.53 280.359 1978.83 273.928L1969.93 269.365ZM1957.77 282.389C1952.41 285.958 1945.29 287.936 1936.06 287.936V297.936C1946.69 297.936 1955.9 295.655 1963.31 290.709L1957.77 282.389ZM1936.06 287.936H1934.78V297.936H1936.06V287.936ZM1933.96 288.004C1933.38 288.101 1932.8 288.148 1932.23 288.148V298.148C1933.36 298.148 1934.48 298.054 1935.6 297.868L1933.96 288.004ZM1932.23 288.148H1846.64V298.148H1932.23V288.148ZM1846.83 288.152C1844.17 288.053 1842.07 287.163 1840.29 285.474L1833.41 292.733C1837.02 296.153 1841.46 297.96 1846.46 298.145L1846.83 288.152ZM1840.48 285.665C1838.79 283.881 1837.9 281.786 1837.8 279.125L1827.81 279.496C1828 284.499 1829.8 288.932 1833.22 292.542L1840.48 285.665ZM1837.81 279.311V181.807H1827.81V279.311H1837.81ZM1837.8 181.992C1837.9 179.336 1838.78 177.366 1840.39 175.762L1833.32 168.691C1829.81 172.196 1828 176.613 1827.81 181.622L1837.8 181.992ZM1840.39 175.762C1842.19 173.963 1844.25 173.061 1846.83 172.965L1846.46 162.972C1841.37 163.161 1836.91 165.097 1833.32 168.691L1840.39 175.762ZM1846.64 172.969H1919.88V162.969H1846.64V172.969ZM1919.88 172.969C1920.45 172.969 1921.03 173.016 1921.61 173.114L1923.26 163.25C1922.14 163.063 1921.01 162.969 1919.88 162.969V172.969ZM1922.43 173.182H1923.71V163.182H1922.43V173.182ZM1923.57 173.18C1932.84 173.444 1940.01 175.55 1945.42 179.154L1950.97 170.834C1943.6 165.923 1934.45 163.487 1923.85 163.184L1923.57 173.18ZM1945.42 179.154C1951.26 183.049 1955.21 187.347 1957.58 191.965L1966.48 187.402C1963.17 180.95 1957.9 175.455 1950.97 170.834L1945.42 179.154ZM1957.61 192.012C1960.11 196.761 1961.29 201.432 1961.29 206.076H1971.29C1971.29 199.65 1969.63 193.392 1966.46 187.355L1957.61 192.012ZM1961.29 206.076C1961.29 210.929 1960.14 215.702 1957.77 220.446L1966.72 224.918C1969.74 218.874 1971.29 212.577 1971.29 206.076H1961.29ZM1957.77 220.446C1957.77 220.444 1957.8 220.382 1957.87 220.281C1957.94 220.184 1958.07 220 1958.28 219.785L1965.35 226.856C1966.03 226.179 1966.46 225.437 1966.72 224.918L1957.77 220.446ZM1958.93 227.402C1964.23 231.149 1967.88 235.254 1970.14 239.655L1979.04 235.087C1975.91 228.986 1971.05 223.724 1964.71 219.238L1958.93 227.402ZM1937.07 269.614C1940.5 269.795 1943.86 269.189 1946.71 267.291L1941.16 258.971C1940.6 259.343 1939.56 259.731 1937.6 259.628L1937.07 269.614ZM1946.56 267.389C1948.88 265.959 1950.9 264.157 1952.27 261.871L1943.69 256.726C1943.36 257.279 1942.68 258.032 1941.32 258.873L1946.56 267.389ZM1952.37 261.693C1953.57 259.501 1954.26 257.123 1954.26 254.615H1944.26C1944.26 255.229 1944.1 255.974 1943.59 256.905L1952.37 261.693ZM1954.26 254.615C1954.26 252.418 1953.39 250.207 1952.45 248.334L1943.51 252.806C1943.85 253.498 1944.06 254.01 1944.17 254.365C1944.29 254.74 1944.26 254.795 1944.26 254.615H1954.26ZM1952.52 248.475C1951.23 245.676 1949.18 243.457 1946.56 241.841L1941.32 250.358C1942.38 251.013 1943.03 251.775 1943.44 252.666L1952.52 248.475ZM1946.71 241.939C1944.06 240.171 1940.91 239.365 1937.6 239.191L1937.07 249.177C1939.15 249.286 1940.41 249.757 1941.16 250.26L1946.71 241.939ZM1937.34 239.184H1923.71V249.184H1937.34V239.184ZM1923.71 239.184H1861.55V249.184H1923.71V239.184ZM1856.55 244.184V258.873H1866.55V244.184H1856.55ZM1856.55 258.873C1856.55 261.607 1857.27 264.565 1859.57 266.783C1861.83 268.969 1864.79 269.621 1867.51 269.621V259.621C1866.25 259.621 1866.23 259.315 1866.51 259.585C1866.63 259.707 1866.66 259.805 1866.65 259.754C1866.62 259.678 1866.55 259.413 1866.55 258.873H1856.55ZM1867.51 269.621H1869.21V259.621H1867.51V269.621ZM1869.21 269.621H1937.34V259.621H1869.21V269.621ZM1934.32 218.059C1936.5 216.788 1938.42 215.172 1939.79 213.107L1931.47 207.56C1931.15 208.051 1930.51 208.706 1929.28 209.421L1934.32 218.059ZM1939.92 212.906C1941.16 210.841 1941.91 208.543 1941.91 206.076H1931.91C1931.91 206.448 1931.81 206.988 1931.35 207.762L1939.92 212.906ZM1941.91 206.076C1941.91 203.589 1941.15 201.286 1939.79 199.258L1931.47 204.805C1931.82 205.331 1931.91 205.725 1931.91 206.076H1941.91ZM1939.92 199.459C1938.5 197.088 1936.39 195.318 1933.96 194.01L1929.22 202.814C1930.48 203.493 1931.06 204.136 1931.35 204.604L1939.92 199.459ZM1934.36 194.252C1931.71 192.484 1928.57 191.677 1925.25 191.503L1924.73 201.489C1926.8 201.599 1928.06 202.07 1928.81 202.572L1934.36 194.252ZM1924.99 191.496H1867.51V201.496H1924.99V191.496ZM1867.51 191.496C1864.79 191.496 1861.83 192.148 1859.57 194.334C1857.27 196.553 1856.55 199.51 1856.55 202.244H1866.55C1866.55 201.704 1866.62 201.44 1866.65 201.363C1866.66 201.312 1866.63 201.41 1866.51 201.532C1866.23 201.802 1866.25 201.496 1867.51 201.496V191.496ZM1856.55 202.244V215.656H1866.55V202.244H1856.55ZM1861.55 220.656H1924.99V210.656H1861.55V220.656ZM1925.25 220.649C1928.58 220.474 1931.71 219.667 1934.42 217.999L1929.18 209.482C1928.2 210.084 1926.79 210.555 1924.73 210.663L1925.25 220.649ZM2134.05 192.238L2130.6 188.613L2130.51 188.702L2130.42 188.795L2134.05 192.238ZM2038.88 196.496V191.496H2038.75L2038.62 191.503L2038.88 196.496ZM2032.07 198.412L2034.59 202.731L2034.64 202.701L2034.69 202.67L2032.07 198.412ZM2028.24 202.031L2032.4 204.805L2032.47 204.706L2032.53 204.604L2028.24 202.031ZM2028.24 210.334L2023.95 212.906L2024.01 213.008L2024.08 213.107L2028.24 210.334ZM2032.07 213.953L2029.3 218.113L2029.49 218.244L2029.7 218.355L2032.07 213.953ZM2038.88 215.656L2038.62 220.649L2038.75 220.656H2038.88V215.656ZM2099.35 215.656L2099.49 210.658L2099.42 210.656H2099.35V215.656ZM2123.83 222.682L2120.99 226.799L2121.04 226.835L2121.1 226.87L2123.83 222.682ZM2137.67 237.584L2133.15 239.729L2133.18 239.798L2133.22 239.866L2137.67 237.584ZM2137.67 271.646L2142.12 273.928L2142.13 273.905L2142.14 273.883L2137.67 271.646ZM2123.83 286.549L2126.6 290.709L2126.63 290.688L2126.66 290.666L2123.83 286.549ZM2098.07 292.936V287.936H2097.65L2097.25 288.004L2098.07 292.936ZM2004.82 289.104L2001.2 292.547L2001.29 292.64L2001.38 292.729L2004.82 289.104ZM2005.04 268.879L2008.48 272.504L2008.57 272.416L2008.66 272.323L2005.04 268.879ZM2100.62 264.621L2100.89 259.628L2100.75 259.621H2100.62V264.621ZM2107.22 263.131L2104.6 258.873L2104.52 258.92L2104.45 258.971L2107.22 263.131ZM2111.27 259.299L2115.56 261.871L2115.61 261.783L2115.66 261.693L2111.27 259.299ZM2111.27 250.57L2106.73 252.666L2106.76 252.737L2106.8 252.806L2111.27 250.57ZM2107.22 246.1L2104.45 250.26L2104.52 250.31L2104.6 250.358L2107.22 246.1ZM2100.62 244.184L2100.89 239.191L2100.75 239.184H2100.62V244.184ZM2040.16 244.184L2040.02 249.182L2040.09 249.184H2040.16V244.184ZM2015.47 237.371L2012.69 241.531L2012.71 241.545L2012.74 241.559L2015.47 237.371ZM2001.63 222.895L1997.13 225.084L1997.17 225.154L1997.2 225.223L2001.63 222.895ZM2001.84 189.684L2006.27 192.012L2006.28 191.989L2006.29 191.965L2001.84 189.684ZM2040.16 168.182V163.182H2040.09L2040.02 163.184L2040.16 168.182ZM2041.44 168.182V173.182H2041.85L2042.26 173.114L2041.44 168.182ZM2134.05 172.227L2130.42 175.67L2130.51 175.763L2130.6 175.852L2134.05 172.227ZM2133.3 182.232C2133.3 184.859 2132.43 186.877 2130.6 188.613L2137.49 195.863C2141.34 192.207 2143.3 187.554 2143.3 182.232H2133.3ZM2130.42 188.795C2128.69 190.623 2126.67 191.496 2124.04 191.496V201.496C2129.36 201.496 2134.02 199.531 2137.67 195.682L2130.42 188.795ZM2124.04 191.496H2038.88V201.496H2124.04V191.496ZM2038.62 191.503C2035.29 191.678 2032.16 192.485 2029.45 194.154L2034.69 202.67C2035.67 202.068 2037.08 201.598 2039.15 201.489L2038.62 191.503ZM2029.55 194.093C2027.26 195.43 2025.31 197.191 2023.95 199.459L2032.53 204.604C2032.87 204.032 2033.48 203.381 2034.59 202.731L2029.55 194.093ZM2024.08 199.258C2022.73 201.286 2021.96 203.589 2021.96 206.076H2031.96C2031.96 205.725 2032.05 205.331 2032.4 204.805L2024.08 199.258ZM2021.96 206.076C2021.96 208.543 2022.71 210.841 2023.95 212.906L2032.53 207.762C2032.06 206.988 2031.96 206.448 2031.96 206.076H2021.96ZM2024.08 213.107C2025.4 215.084 2027.22 216.727 2029.3 218.113L2034.85 209.793C2033.52 208.908 2032.79 208.139 2032.4 207.56L2024.08 213.107ZM2029.7 218.355C2032.36 219.785 2035.39 220.479 2038.62 220.649L2039.15 210.663C2036.98 210.549 2035.48 210.108 2034.44 209.551L2029.7 218.355ZM2038.88 220.656H2099.35V210.656H2038.88V220.656ZM2099.2 220.654C2108.44 220.918 2115.59 223.081 2120.99 226.799L2126.66 218.564C2119.29 213.482 2110.12 210.962 2099.49 210.658L2099.2 220.654ZM2121.1 226.87C2127.04 230.744 2130.93 235.063 2133.15 239.729L2142.18 235.439C2139.01 228.75 2133.68 223.134 2126.56 218.494L2121.1 226.87ZM2133.22 239.866C2135.72 244.745 2136.92 249.644 2136.92 254.615H2146.92C2146.92 247.948 2145.29 241.494 2142.12 235.302L2133.22 239.866ZM2136.92 254.615C2136.92 259.428 2135.73 264.345 2133.19 269.41L2142.14 273.883C2145.28 267.594 2146.92 261.156 2146.92 254.615H2136.92ZM2133.22 269.365C2130.84 274.004 2126.86 278.387 2120.99 282.431L2126.66 290.666C2133.57 285.911 2138.82 280.359 2142.12 273.928L2133.22 269.365ZM2121.05 282.389C2115.7 285.958 2108.58 287.936 2099.35 287.936V297.936C2109.98 297.936 2119.18 295.655 2126.6 290.709L2121.05 282.389ZM2099.35 287.936H2098.07V297.936H2099.35V287.936ZM2097.25 288.004C2096.66 288.101 2096.09 288.148 2095.51 288.148V298.148C2096.64 298.148 2097.77 298.054 2098.89 297.868L2097.25 288.004ZM2095.51 288.148H2015.04V298.148H2095.51V288.148ZM2015.04 288.148C2012.33 288.148 2010.16 287.278 2008.27 285.479L2001.38 292.729C2005.16 296.323 2009.81 298.148 2015.04 298.148V288.148ZM2008.45 285.66C2006.65 283.766 2005.78 281.598 2005.78 278.885H1995.78C1995.78 284.119 1997.6 288.764 2001.2 292.547L2008.45 285.66ZM2005.78 278.885C2005.78 276.258 2006.65 274.241 2008.48 272.504L2001.59 265.254C1997.74 268.91 1995.78 273.564 1995.78 278.885H2005.78ZM2008.66 272.323C2010.4 270.495 2012.41 269.621 2015.04 269.621V259.621C2009.72 259.621 2005.07 261.586 2001.41 265.435L2008.66 272.323ZM2015.04 269.621H2100.62V259.621H2015.04V269.621ZM2100.36 269.614C2103.79 269.795 2107.15 269.189 2110 267.291L2104.45 258.971C2103.89 259.343 2102.85 259.731 2100.89 259.628L2100.36 269.614ZM2109.84 267.389C2112.17 265.959 2114.18 264.157 2115.56 261.871L2106.98 256.726C2106.65 257.279 2105.97 258.032 2104.6 258.873L2109.84 267.389ZM2115.66 261.693C2116.85 259.501 2117.54 257.123 2117.54 254.615H2107.54C2107.54 255.229 2107.39 255.974 2106.88 256.905L2115.66 261.693ZM2117.54 254.615C2117.54 252.418 2116.68 250.207 2115.74 248.334L2106.8 252.806C2107.14 253.498 2107.35 254.01 2107.46 254.365C2107.58 254.74 2107.54 254.795 2107.54 254.615H2117.54ZM2115.81 248.475C2114.52 245.676 2112.47 243.457 2109.84 241.841L2104.6 250.358C2105.67 251.013 2106.32 251.775 2106.73 252.666L2115.81 248.475ZM2110 241.939C2107.34 240.171 2104.2 239.365 2100.89 239.191L2100.36 249.177C2102.44 249.286 2103.7 249.757 2104.45 250.26L2110 241.939ZM2100.62 239.184H2040.16V249.184H2100.62V239.184ZM2040.3 239.186C2031.04 238.921 2023.77 236.816 2018.2 233.183L2012.74 241.559C2020.22 246.441 2029.41 248.879 2040.02 249.182L2040.3 239.186ZM2018.24 233.211C2012.37 229.298 2008.42 225.053 2006.05 220.566L1997.2 225.223C2000.52 231.523 2005.79 236.928 2012.69 241.531L2018.24 233.211ZM2006.12 220.705C2003.73 215.793 2002.58 210.932 2002.58 206.076H1992.58C1992.58 212.575 1994.13 218.926 1997.13 225.084L2006.12 220.705ZM2002.58 206.076C2002.58 201.432 2003.77 196.761 2006.27 192.012L1997.42 187.355C1994.24 193.392 1992.58 199.65 1992.58 206.076H2002.58ZM2006.29 191.965C2008.66 187.347 2012.61 183.049 2018.45 179.154L2012.91 170.834C2005.97 175.455 2000.7 180.95 1997.39 187.402L2006.29 191.965ZM2018.45 179.154C2023.86 175.55 2031.04 173.444 2040.3 173.18L2040.02 163.184C2029.42 163.487 2020.27 165.923 2012.91 170.834L2018.45 179.154ZM2040.16 173.182H2041.44V163.182H2040.16V173.182ZM2042.26 173.114C2042.85 173.016 2043.42 172.969 2043.99 172.969V162.969C2042.86 162.969 2041.74 163.063 2040.62 163.25L2042.26 173.114ZM2043.99 172.969H2124.04V162.969H2043.99V172.969ZM2124.04 172.969C2126.67 172.969 2128.69 173.842 2130.42 175.67L2137.67 168.783C2134.02 164.934 2129.36 162.969 2124.04 162.969V172.969ZM2130.6 175.852C2132.43 177.588 2133.3 179.606 2133.3 182.232H2143.3C2143.3 176.911 2141.34 172.258 2137.49 168.602L2130.6 175.852Z" fill="black"/>
</g>
<defs>
<clipPath id="clip0_14_287">
<rect width="2211" height="430" fill="white" transform="matrix(-1 0 0 1 2211 0)"/>
</clipPath>
</defs>
</svg>
